<svg width="97" height="89" viewBox="0 0 97 89" fill="none" xmlns="http://www.w3.org/2000/svg">
<path d="M67.8374 36.191C67.6022 36.9153 67.1438 37.5464 66.5278 37.9941C65.9118 38.4418 65.1699 38.683 64.4084 38.683H31.7196C30.9583 38.6827 30.2167 38.4417 29.6007 37.9943C28.9848 37.5469 28.5263 36.9161 28.2906 36.1923L20.2499 11.4814L7.30713 51.3272L48.0527 80.9302L88.8031 51.3274L75.8638 11.4832L67.8374 36.191Z" fill="#FC6D26"/>
<path d="M75.8302 0.00735757C74.7168 0.0118069 73.6332 0.367493 72.7337 1.02375C71.8343 1.68001 71.1648 2.60337 70.8208 3.66231L61.7893 31.47H34.3383L25.2894 3.66107C24.9458 2.60279 24.277 1.67993 23.3782 1.02395C22.4795 0.36796 21.3967 0.0122971 20.2841 0.00761829H20.2541C19.1348 0.00850182 18.0442 0.362343 17.1375 1.0188C16.2308 1.67525 15.5542 2.6009 15.2039 3.66406L0.401108 49.2456C-0.0581835 50.6494 -0.0601692 52.1627 0.395405 53.5677C0.850979 54.9727 1.74064 56.1968 2.93629 57.064L45.9335 88.3035C46.5494 88.7514 47.2914 88.9926 48.053 88.9926C48.8145 88.9926 49.5565 88.7514 50.1724 88.3035L93.178 57.061C94.3723 56.1941 95.2608 54.9708 95.7156 53.5669C96.1705 52.1631 96.1683 50.6511 95.7093 49.2486L80.8933 3.62476C80.5391 2.56995 79.8623 1.65313 78.9585 1.004C78.0548 0.354869 76.9699 0.00620712 75.8572 0.00735757H75.8302ZM48.0529 80.9297L7.30778 51.3269L20.2505 11.4812L28.2913 36.192C28.5269 36.9158 28.9855 37.5466 29.6014 37.994C30.2173 38.4414 30.959 38.6825 31.7202 38.6828H64.408C65.1694 38.6827 65.9114 38.4416 66.5274 37.9939C67.1433 37.5462 67.6018 36.915 67.8369 36.1907L75.8625 11.4824L88.8018 51.3267L48.0529 80.9297Z" fill="#380D75"/>
</svg>
