<svg width="25" height="24" viewBox="0 0 25 24" fill="none" xmlns="http://www.w3.org/2000/svg">
<path fill-rule="evenodd" clip-rule="evenodd" d="M2.05518 11.9927C2.05518 6.47268 6.52518 1.99268 12.0452 1.99268C17.5752 1.99268 22.0552 6.47268 22.0552 11.9927C22.0552 17.5127 17.5752 21.9927 12.0452 21.9927C6.52518 21.9927 2.05518 17.5127 2.05518 11.9927ZM16.0252 7.99268H18.9752C18.0152 6.34268 16.4852 5.06268 14.6452 4.43268C15.2452 5.54268 15.7052 6.74268 16.0252 7.99268ZM12.0552 4.03268C12.8852 5.23268 13.5352 6.56268 13.9652 7.99268H10.1452C10.5752 6.56268 11.2252 5.23268 12.0552 4.03268ZM4.05518 11.9927C4.05518 12.6827 4.15518 13.3527 4.31518 13.9927H7.69518C7.61518 13.3327 7.55518 12.6727 7.55518 11.9927C7.55518 11.3127 7.61518 10.6527 7.69518 9.99268H4.31518C4.15518 10.6327 4.05518 11.3027 4.05518 11.9927ZM5.13518 15.9927H8.08518C8.40518 17.2427 8.86518 18.4427 9.46518 19.5527C7.62518 18.9227 6.09518 17.6527 5.13518 15.9927ZM5.13518 7.99268H8.08518C8.40518 6.74268 8.86518 5.54268 9.46518 4.43268C7.62518 5.06268 6.09518 6.33268 5.13518 7.99268ZM12.0552 19.9527C11.2252 18.7527 10.5752 17.4227 10.1452 15.9927H13.9652C13.5352 17.4227 12.8852 18.7527 12.0552 19.9527ZM9.55518 11.9927C9.55518 12.6727 9.62518 13.3327 9.71518 13.9927H14.3952C14.4852 13.3327 14.5552 12.6727 14.5552 11.9927C14.5552 11.3127 14.4852 10.6427 14.3952 9.99268H9.71518C9.62518 10.6427 9.55518 11.3127 9.55518 11.9927ZM14.6452 19.5527C15.2452 18.4427 15.7052 17.2427 16.0252 15.9927H18.9752C18.0152 17.6427 16.4852 18.9227 14.6452 19.5527ZM16.5552 11.9927C16.5552 12.6727 16.4952 13.3327 16.4152 13.9927H19.7952C19.9552 13.3527 20.0552 12.6827 20.0552 11.9927C20.0552 11.3027 19.9552 10.6327 19.7952 9.99268H16.4152C16.4952 10.6527 16.5552 11.3127 16.5552 11.9927Z" fill="#42474E"/>
</svg>
