<svg width="450" height="637" viewBox="0 0 450 637" fill="none" xmlns="http://www.w3.org/2000/svg">
<g clip-path="url(#clip0_160_2466)">
<rect x="0.0551758" width="449.89" height="637" rx="13.7581" fill="#2D628A"/>
<g opacity="0.3" clip-path="url(#clip1_160_2466)">
<path d="M171.332 317.656V328.058H223.949V313.984M171.332 317.656C175.003 317.656 178.062 314.963 178.062 311.537C178.062 308.11 175.003 305.417 171.332 305.417C167.661 305.417 164.602 308.11 164.602 311.537C164.602 314.963 167.539 317.656 171.332 317.656ZM223.949 313.984C229.334 313.984 233.739 309.823 233.739 304.806C233.739 299.788 229.334 295.627 223.949 295.627C218.565 295.627 214.16 299.788 214.16 304.806C214.16 309.823 218.443 313.984 223.949 313.984ZM214.16 304.194L202.535 317.656M202.535 317.656L189.687 304.194M202.535 317.656V280.941" stroke="white" stroke-opacity="0.33" stroke-width="1.28713" stroke-linecap="round" stroke-linejoin="round"/>
<path d="M171.822 239.82V214.487H242.916V239.82M171.822 239.82C166.437 239.82 162.032 244.348 162.032 249.978C162.032 255.607 166.437 260.136 171.822 260.136C177.206 260.136 181.611 255.607 181.611 249.978C181.611 244.348 177.206 239.82 171.822 239.82ZM242.916 239.82C237.532 239.82 233.127 244.348 233.127 249.978C233.127 255.607 237.532 260.136 242.916 260.136C248.3 260.136 252.706 255.607 252.706 249.978C252.706 244.348 248.3 239.82 242.916 239.82ZM206.941 239.82V189.031M206.941 239.82C201.556 239.82 197.151 244.348 197.151 249.978C197.151 255.607 201.556 260.136 206.941 260.136C212.325 260.136 216.73 255.607 216.73 249.978C216.608 244.348 212.325 239.82 206.941 239.82ZM185.527 189.031H230.313C234.595 189.031 238.144 185.359 238.144 180.954V178.873C238.144 174.345 234.595 170.796 230.313 170.796H185.527C181.244 170.796 177.695 174.467 177.695 178.873V180.954C177.695 185.482 181.121 189.031 185.527 189.031Z" stroke="white" stroke-opacity="0.33" stroke-width="1.28713" stroke-linecap="round" stroke-linejoin="round"/>
<path d="M408.722 611.988H350.598M359.776 599.137H342.645C340.809 599.382 337.138 600.851 337.138 605.257C337.138 609.662 337.138 616.516 337.138 619.331C337.383 621.778 338.974 626.551 343.868 626.062H430.748C432.217 625.695 435.276 623.981 436.255 620.554V604.645C435.888 603.054 434.175 599.627 430.748 599.137H382.903M383.025 597.914C383.025 601.952 379.722 605.257 375.684 605.257C371.645 605.257 368.342 601.952 368.342 597.914C368.342 593.875 371.645 590.571 375.684 590.571C379.722 590.571 383.025 593.875 383.025 597.914ZM423.406 611.376C423.406 615.414 420.102 618.719 416.064 618.719C412.026 618.719 408.722 615.414 408.722 611.376C408.722 607.337 412.026 604.033 416.064 604.033C420.102 604.033 423.406 607.337 423.406 611.376Z" stroke="white" stroke-opacity="0.33" stroke-width="1.28713" stroke-linecap="round" stroke-linejoin="round"/>
<path d="M99.1358 404.548L61.2023 359.878C58.1431 356.574 50.434 352.045 44.071 359.878L4.30199 405.772C3.69016 406.384 2.83359 407.607 4.30199 407.607H49.5775M63.0378 373.952L58.7549 377.624L54.4721 373.952L48.9656 378.847L43.4592 373.952L38.5645 377.624L33.6699 373.952M64.2614 408.219C64.2614 412.258 60.9575 415.562 56.9194 415.562C52.8814 415.562 49.5775 412.258 49.5775 408.219C49.5775 404.181 52.8814 400.876 56.9194 400.876C60.9575 400.876 64.2614 404.181 64.2614 408.219Z" stroke="white" stroke-opacity="0.33" stroke-width="1.28713" stroke-linecap="round" stroke-linejoin="round"/>
<path d="M393.182 404.548H340.442C338.729 404.548 339.708 403.079 340.442 402.345L386.696 346.171C394.161 336.625 403.093 342.133 406.642 346.171L440.17 387.659L441.272 389.005M441.272 389.005C439.681 390.596 438.702 392.922 438.702 395.369C438.702 400.387 442.862 404.548 447.879 404.548C452.896 404.548 457.057 400.387 457.057 395.369M441.272 389.005C442.985 387.292 445.31 386.191 447.879 386.191C452.896 386.191 457.057 390.352 457.057 395.369M408.845 363.427L403.828 367.955L398.811 363.427L392.448 369.424L386.085 363.427L380.333 367.955L374.582 363.427M525.582 418.01C525.582 422.049 528.886 425.353 532.924 425.353C536.962 425.353 540.266 422.049 540.266 418.01C540.266 413.972 536.962 410.667 532.924 410.667C528.886 410.667 525.582 413.972 525.582 418.01ZM525.582 418.01H475.412C470.517 418.01 467.091 412.87 468.682 407.608C470.517 401.488 465.378 397.205 463.175 395.369M463.175 395.369L586.765 395.981M463.175 395.369H457.057M586.765 395.981C586.765 400.02 590.069 403.324 594.107 403.324C598.145 403.324 601.449 400.02 601.449 395.981C601.449 391.943 598.145 388.638 594.107 388.638C590.069 388.638 586.765 391.943 586.765 395.981ZM410.313 405.405C410.313 410.422 406.52 414.339 401.747 414.339C396.975 414.339 393.182 410.3 393.182 405.405C393.182 400.387 396.975 396.471 401.747 396.471C406.397 396.348 410.313 400.387 410.313 405.405Z" stroke="white" stroke-opacity="0.33" stroke-width="1.28713" stroke-linecap="round" stroke-linejoin="round"/>
<path d="M308.994 142.158L355.493 85.7395C359.286 81.5784 368.709 75.8264 376.54 85.7395L425.364 143.749C426.098 144.483 427.2 146.074 425.364 146.074H369.81M353.29 103.485L358.552 108.136L363.814 103.485L370.544 109.727L377.274 103.485L383.27 108.136L389.266 103.485M351.822 146.809C351.822 151.949 355.86 156.11 360.877 156.11C365.894 156.11 369.932 151.949 369.932 146.809C369.932 141.669 365.894 137.508 360.877 137.508C355.86 137.508 351.822 141.669 351.822 146.809Z" stroke="white" stroke-opacity="0.33" stroke-width="1.28713" stroke-linecap="round" stroke-linejoin="round"/>
<path d="M185.404 460.844V492.664M185.404 460.844C189.442 460.844 192.746 457.54 192.746 453.501C192.746 449.463 189.442 446.158 185.404 446.158C181.366 446.158 178.062 449.463 178.062 453.501C178.062 457.54 181.244 460.844 185.404 460.844ZM185.404 492.664V498.783M185.404 492.664C187.239 489.972 190.299 486.545 194.581 487.157C201.189 488.992 209.877 486.545 209.877 477.978M185.404 498.783C181.366 498.783 178.062 502.087 178.062 506.126C178.062 510.165 181.366 513.469 185.404 513.469C189.442 513.469 192.746 510.165 192.746 506.126C192.746 502.087 189.442 498.783 185.404 498.783ZM209.877 450.442V466.352M201.312 458.397C208.286 458.397 212.08 458.397 219.055 458.397" stroke="white" stroke-opacity="0.33" stroke-width="1.28713" stroke-linecap="round" stroke-linejoin="round"/>
<path d="M422.794 65.5463V97.3659M422.794 65.5463C426.832 65.5463 430.136 62.2419 430.136 58.2033C430.136 54.1646 426.832 50.8603 422.794 50.8603C418.756 50.8603 415.452 54.1646 415.452 58.2033C415.452 62.2419 418.634 65.5463 422.794 65.5463ZM422.794 97.3659V103.485M422.794 97.3659C424.63 94.6735 427.689 91.2467 431.972 91.8587C438.58 93.6944 447.268 91.2467 447.268 82.6799M422.794 103.485C418.756 103.485 415.452 106.789 415.452 110.828C415.452 114.867 418.756 118.171 422.794 118.171C426.832 118.171 430.136 114.867 430.136 110.828C430.136 106.789 426.832 103.485 422.794 103.485ZM447.268 55.1437V71.0535M438.702 63.0986C445.677 63.0986 449.47 63.0986 456.445 63.0986" stroke="white" stroke-opacity="0.33" stroke-width="1.28713" stroke-linecap="round" stroke-linejoin="round"/>
<path d="M28.7752 148.767H60.5905M28.7752 148.767C28.7752 144.728 25.4714 141.424 21.4333 141.424C17.3952 141.424 14.0913 144.728 14.0913 148.767C14.0913 152.806 17.3952 156.11 21.4333 156.11C25.4714 156.11 28.7752 152.806 28.7752 148.767ZM60.5905 148.767H66.7088M60.5905 148.767C51.413 142.403 60.101 124.29 45.9065 124.29M66.7088 148.767C66.7088 152.806 70.0126 156.11 74.0507 156.11C78.0888 156.11 81.3927 152.806 81.3927 148.767C81.3927 144.728 78.0888 141.424 74.0507 141.424C70.0126 141.424 66.7088 144.728 66.7088 148.767ZM23.8806 116.335L37.9527 131.021M23.8806 131.021L37.9527 116.335" stroke="white" stroke-opacity="0.33" stroke-width="1.28713" stroke-linecap="round" stroke-linejoin="round"/>
<path d="M257.6 107.768H289.415M257.6 107.768C257.6 103.73 254.296 100.425 250.258 100.425C246.22 100.425 242.916 103.73 242.916 107.768C242.916 111.807 246.22 115.111 250.258 115.111C254.296 115.111 257.6 111.807 257.6 107.768ZM289.415 107.768H295.533M289.415 107.768C280.238 101.405 288.926 83.2918 274.731 83.2918M295.533 107.768C295.533 111.807 298.837 115.111 302.875 115.111C306.914 115.111 310.217 111.807 310.217 107.768C310.217 103.73 306.914 100.425 302.875 100.425C298.837 100.425 295.533 103.73 295.533 107.768ZM252.705 75.3369L266.777 90.0229M252.705 90.0229L266.777 75.3369" stroke="white" stroke-opacity="0.33" stroke-width="1.28713" stroke-linecap="round" stroke-linejoin="round"/>
<path d="M413.005 443.711H381.19M413.005 443.711C413.005 447.749 416.309 451.054 420.347 451.054C424.385 451.054 427.689 447.749 427.689 443.711C427.689 439.672 424.385 436.368 420.347 436.368C416.309 436.368 413.005 439.672 413.005 443.711ZM381.19 443.711H375.072M381.19 443.711C390.367 450.075 381.679 468.187 395.874 468.187M375.072 443.711C375.072 439.672 371.768 436.368 367.73 436.368C363.692 436.368 360.388 439.672 360.388 443.711C360.388 447.749 363.692 451.054 367.73 451.054C371.768 451.054 375.072 447.749 375.072 443.711ZM417.9 476.142L403.828 461.456M417.9 461.456L403.828 476.142" stroke="white" stroke-opacity="0.33" stroke-width="1.28713" stroke-linecap="round" stroke-linejoin="round"/>
<path d="M514.447 534.152C508.451 534.152 501.721 534.029 494.746 534.029C479.328 533.907 462.931 533.662 451.795 533.662C449.47 533.662 444.82 532.316 444.82 526.686V491.562M514.447 534.152C514.936 534.152 515.426 534.152 515.793 534.152H514.447ZM532.924 534.274C534.27 534.274 535.371 534.274 536.105 534.274C536.473 534.274 536.84 534.274 537.084 534.152M532.924 534.274C532.434 534.274 531.945 534.274 531.333 534.274H532.924ZM537.084 534.152C537.207 534.152 537.329 534.152 537.452 534.152M537.084 534.152H537.452M503.556 491.44C503.556 495.479 500.252 498.783 496.214 498.783C492.176 498.783 488.872 495.479 488.872 491.44M503.556 491.44C503.556 487.401 500.252 484.097 496.214 484.097C492.176 484.097 488.872 487.401 488.872 491.44M503.556 491.44H543.937M488.872 491.44H444.82V480.303V468.677C444.82 466.841 446.166 463.292 451.795 463.292H474.188M543.937 491.44C543.937 483.485 543.937 475.53 543.937 468.677C543.937 464.516 537.941 463.292 536.105 463.292H526.194H524.358M543.937 491.44C543.937 502.944 543.937 514.326 543.937 522.036V523.26M524.358 463.292C524.358 467.331 521.054 470.635 517.016 470.635C512.978 470.635 509.674 467.331 509.674 463.292M524.358 463.292C524.358 459.253 521.054 455.949 517.016 455.949M509.674 463.292C509.674 459.253 512.978 455.949 517.016 455.949M509.674 463.292H508.451H474.188M517.016 455.949C517.016 454.97 517.016 452.155 517.016 449.218C517.016 446.281 514.202 444.69 512.734 444.323C504.78 444.323 486.792 444.323 478.471 444.323C475.534 444.323 474.433 447.627 474.188 449.218V463.292M543.937 523.26C539.899 523.26 536.595 526.564 536.595 530.603C536.595 531.949 536.962 533.05 537.452 534.152M543.937 523.26C547.975 523.26 551.279 526.564 551.279 530.603C551.279 534.029 548.954 536.844 545.772 537.701M537.452 534.152C538.798 536.477 541.122 537.946 543.937 537.946C544.549 537.946 545.161 537.823 545.772 537.701M545.772 537.701L569.634 563.034H591.66M591.66 563.034C591.66 568.052 595.82 572.213 600.837 572.213C605.854 572.213 610.015 568.052 610.015 563.034C610.015 558.017 605.854 553.856 600.837 553.856C595.82 553.856 591.66 558.017 591.66 563.034Z" stroke="white" stroke-opacity="0.33" stroke-width="1.28713" stroke-linecap="round" stroke-linejoin="round"/>
<path d="M76.131 92.4706C77.1099 92.4706 77.8441 92.4706 78.3336 92.4706C81.8822 92.4706 83.84 88.0648 83.84 85.1276C83.84 74.3578 83.84 48.2902 83.84 30.0551C83.84 26.1388 79.6796 24.915 78.3336 24.915H72.5824M76.131 92.4706C75.7639 92.4706 75.3968 92.4706 75.0297 92.4706H76.131ZM72.5824 24.915C72.5824 30.9118 67.5653 35.6847 61.447 35.6847C55.3287 35.6847 50.3117 30.9118 50.3117 24.915C50.3117 18.9182 55.3287 14.1453 61.447 14.1453C67.5653 14.1453 72.5824 18.9182 72.5824 24.915ZM74.9073 92.4706C70.9916 92.4706 66.9535 92.3482 63.0378 92.3482C58.755 92.3482 54.105 92.2258 49.2104 92.2258C38.3198 92.1034 26.8174 91.981 18.986 91.8586C17.3952 91.8586 14.0913 90.5124 14.0913 85.25V41.192V30.1775C14.0913 28.4641 15.0702 25.0374 18.986 25.0374H46.8855H50.4341M30.7331 44.4963L46.0289 59.3047L30.7331 74.1131M53.738 74.2355H68.4219" stroke="white" stroke-opacity="0.33" stroke-width="1.28713" stroke-linecap="round" stroke-linejoin="round"/>
<path d="M501.476 169.572C502.332 169.572 503.066 169.572 503.433 169.572C506.615 169.572 508.328 165.411 508.328 162.719C508.328 152.683 508.328 128.206 508.328 111.073C508.328 107.401 504.535 106.3 503.433 106.3H498.417M501.476 169.572C501.109 169.572 500.864 169.572 500.497 169.572M501.476 169.572H500.497M498.417 106.3C498.417 111.929 493.889 116.458 488.382 116.458C482.876 116.458 478.348 111.929 478.348 106.3C478.348 100.67 482.876 96.142 488.382 96.142C493.889 96.142 498.417 100.67 498.417 106.3ZM500.497 169.572C496.948 169.572 493.399 169.45 489.851 169.45C486.058 169.45 481.775 169.327 477.37 169.327C467.703 169.205 457.301 169.082 450.327 168.96C448.858 168.96 445.921 167.736 445.921 162.719V121.475V111.195C445.921 109.604 446.778 106.422 450.327 106.422H475.289H478.471M460.972 124.657L474.677 138.609L460.972 152.561M481.53 152.438H494.623" stroke="white" stroke-opacity="0.33" stroke-width="1.28713" stroke-linecap="round" stroke-linejoin="round"/>
<path d="M117.491 112.052H130.951H131.563M131.563 112.052C131.563 117.437 135.968 121.843 141.352 121.843C146.736 121.843 151.142 117.437 151.142 112.052M131.563 112.052C131.563 106.667 135.968 102.261 141.352 102.261C146.736 102.261 151.142 106.667 151.142 112.052M168.273 112.052H154.812H151.142M164.479 83.2918C163.745 84.1485 163.378 85.25 163.378 86.3514C163.378 89.0438 165.581 91.2467 168.273 91.2467C169.374 91.2467 170.353 90.8796 171.21 90.2677M164.479 83.2918C165.336 82.1904 166.682 81.4561 168.273 81.4561C170.965 81.4561 173.167 83.659 173.167 86.3514C173.167 87.9424 172.433 89.411 171.21 90.2677M164.479 83.2918C164.357 83.1694 164.235 83.0471 164.112 82.9247L164.479 83.2918ZM171.21 90.2677C171.332 90.5124 171.577 90.7572 171.699 91.002L171.21 90.2677ZM163.99 82.9247C157.872 78.1517 150.163 75.3369 141.842 75.3369C121.896 75.3369 105.744 91.4915 105.744 111.44C105.744 131.388 121.896 147.543 141.842 147.543C161.787 147.543 177.94 131.388 177.94 111.44C177.94 103.852 175.615 96.8764 171.577 91.002" stroke="white" stroke-opacity="0.33" stroke-width="1.28713" stroke-linecap="round" stroke-linejoin="round"/>
<path d="M-86.616 577.231L-93.1014 642.828C-93.1014 644.786 -92.6119 645.521 -91.7553 645.521H-66.4255L-66.5479 608.071M-66.5479 608.071V592.039H-76.8267M-66.5479 608.071H-76.8267M-46.2351 513.714C-44.522 491.807 -40.3615 448.851 -40.3615 447.505C-40.3615 446.281 -40.9734 446.158 -41.7076 446.158H-67.0374V448.116V466.229M-67.0374 466.229H-56.0244M-67.0374 466.229V483.24M-66.7926 519.099H-53.3323M-66.7926 519.099V509.675L-81.3542 501.598C-81.966 501.108 -83.5568 500.496 -84.6581 501.598C-85.7594 502.699 -93.3461 507.35 -97.0171 509.675M-66.7926 519.099V532.439V535.743C-61.7756 535.865 -57.6152 540.026 -57.3704 545.044M-66.915 500.374H-56.0244M-66.915 500.374V483.363M-66.915 500.374V509.798M-66.915 483.24H-56.0244M-66.6703 571.234H-80.7424M-66.6703 571.234L-66.5479 591.917M-66.6703 571.234V557.16V555.814M-76.8267 626.062H-66.6703M-41.7076 573.315L-22.8632 644.174L-72.2991 661.553L-129.566 644.786M-133.482 633.405L-112.68 559.118M-36.4458 566.583C-15.1541 568.542 27.5517 572.58 28.653 572.58C29.7543 572.58 29.999 571.234 29.999 570.622V545.901V545.289H10.4204M-36.4458 566.583C-36.4458 570.255 -39.3826 573.315 -42.9312 573.315C-46.4798 573.315 -49.4166 570.377 -49.4166 566.583C-49.4166 562.912 -46.4798 559.852 -42.9312 559.852C-39.3826 559.852 -36.4458 562.912 -36.4458 566.583ZM10.4204 557.16V545.166H-6.46612M-6.46612 545.166V557.16M-6.46612 545.166H-22.7408M-22.7408 545.166V557.16M-22.7408 545.166H-41.5852M-57.2481 545.166H-54.6784H-43.0536H-41.7076V559.852M-143.883 535.743V545.656M-143.883 545.656L-163.462 545.778V520.323C-163.462 519.711 -162.85 518.976 -161.504 518.976L-98.9749 524.973M-143.883 545.656L-127.609 545.534M-127.609 545.534V535.743M-127.609 545.534L-111.334 545.411M-111.334 545.411V535.743M-111.334 545.411L-91.7553 545.289M-91.7553 545.289V535.743M-91.7553 545.289L-79.3963 545.166H-76.8267M-66.6703 555.936C-66.7926 555.936 -66.915 555.936 -67.0374 555.936C-72.4215 555.936 -76.8267 551.408 -76.8267 545.901C-76.8267 545.656 -76.8267 545.534 -76.8267 545.289C-76.5819 540.026 -72.2991 535.865 -67.0374 535.865C-66.915 535.865 -66.7926 535.865 -66.7926 535.865M-57.3704 545.166C-57.3704 545.411 -57.3704 545.656 -57.3704 545.778C-57.3704 551.163 -61.5309 555.569 -66.7926 555.814M-98.9749 525.096C-98.9749 528.767 -96.0382 531.827 -92.4895 531.827C-88.9409 531.827 -86.0041 528.889 -86.0041 525.096C-86.0041 521.424 -88.9409 518.364 -92.4895 518.364C-96.0382 518.364 -98.9749 521.424 -98.9749 525.096ZM-80.7424 570.622C-80.7424 574.294 -83.6792 577.353 -87.2278 577.353C-90.7764 577.353 -93.7132 574.416 -93.7132 570.622C-93.7132 566.951 -90.7764 563.891 -87.2278 563.891C-83.6792 563.891 -80.7424 566.828 -80.7424 570.622ZM-127.609 640.136C-127.609 643.807 -130.545 646.867 -134.094 646.867C-137.643 646.867 -140.579 643.93 -140.579 640.136C-140.579 636.464 -137.643 633.405 -134.094 633.405C-130.545 633.405 -127.609 636.464 -127.609 640.136ZM-40.3615 519.711C-40.3615 523.382 -43.2983 526.442 -46.847 526.442C-50.3956 526.442 -53.3323 523.505 -53.3323 519.711C-53.3323 516.039 -50.3956 512.98 -46.847 512.98C-43.2983 512.98 -40.3615 516.039 -40.3615 519.711Z" stroke="white" stroke-opacity="0.33" stroke-width="1.28713" stroke-linecap="round" stroke-linejoin="round"/>
<path d="M345.704 190.989H414.229M421.571 291.343H436.255V273.598M436.255 273.598C459.871 273.598 479.083 253.894 479.083 229.54C479.083 205.186 459.871 185.482 436.255 185.482C432.339 185.482 428.668 185.971 424.997 186.95M436.255 273.598C412.638 273.598 393.426 253.894 393.426 229.54C393.426 213.63 401.625 199.678 413.984 191.968M414.229 191.723C414.351 195.028 417.043 197.72 420.347 197.72C423.773 197.72 426.465 195.028 426.465 191.601C426.465 189.888 425.731 188.297 424.507 187.195M414.229 191.723V191.601C414.229 188.174 416.921 185.482 420.347 185.482C421.938 185.482 423.406 186.094 424.507 187.195M414.229 191.723C414.106 191.723 414.106 191.846 413.984 191.846L414.229 191.723ZM424.507 187.195C424.63 187.195 424.875 187.073 424.997 187.073L424.507 187.195ZM465.623 230.152C465.623 246.062 452.774 258.912 436.866 258.912C420.959 258.912 408.11 246.062 408.11 230.152C408.11 214.242 420.959 201.392 436.866 201.392C452.774 201.392 465.623 214.242 465.623 230.152ZM421.571 290.732C421.571 294.158 418.879 296.851 415.452 296.851C412.026 296.851 409.334 294.158 409.334 290.732C409.334 287.305 412.026 284.612 415.452 284.612C418.879 284.612 421.571 287.305 421.571 290.732ZM345.704 191.601C345.704 195.028 343.012 197.72 339.585 197.72C336.159 197.72 333.467 195.028 333.467 191.601C333.467 188.174 336.159 185.482 339.585 185.482C343.012 185.482 345.704 188.174 345.704 191.601Z" stroke="white" stroke-opacity="0.33" stroke-width="1.28713" stroke-linecap="round" stroke-linejoin="round"/>
<path d="M120.55 202.615V234.68M120.55 202.615C124.588 202.615 127.892 199.311 127.892 195.273C127.892 191.234 124.588 187.93 120.55 187.93C116.512 187.93 113.208 191.234 113.208 195.273C113.208 199.311 116.39 202.615 120.55 202.615ZM120.55 234.68V267.479M120.55 234.68L132.787 245.45L133.031 245.694M120.55 267.479C116.512 267.479 113.208 270.783 113.208 274.822C113.208 278.86 116.512 282.165 120.55 282.165C124.588 282.165 127.892 278.86 127.892 274.822C127.892 270.783 124.588 267.479 120.55 267.479ZM133.031 245.694C133.521 245.572 134.01 245.45 134.622 245.45C138.66 245.45 141.964 248.754 141.964 252.793C141.964 256.831 138.66 260.136 134.622 260.136M133.031 245.694C129.727 246.429 127.28 249.244 127.28 252.793C127.28 256.831 130.584 260.136 134.622 260.136M134.622 260.136V318.268M141.964 324.999C141.964 329.037 138.66 332.342 134.622 332.342C130.584 332.342 127.28 329.037 127.28 324.999C127.28 320.96 130.584 317.656 134.622 317.656C138.66 317.656 141.964 320.96 141.964 324.999Z" stroke="white" stroke-opacity="0.33" stroke-width="1.28713" stroke-linecap="round" stroke-linejoin="round"/>
<path d="M311.441 170.796H297.369M311.441 170.796C311.441 174.835 314.745 178.139 318.783 178.139C322.821 178.139 326.125 174.835 326.125 170.796C326.125 166.757 322.821 163.453 318.783 163.453C314.745 163.453 311.441 166.757 311.441 170.796ZM297.369 170.796H271.06C263.718 170.796 262.495 176.915 262.495 190.377M297.369 170.796C291.251 170.796 290.027 172.632 290.027 190.377M262.495 190.377C258.457 190.377 255.153 193.682 255.153 197.72C255.153 201.759 258.457 205.063 262.495 205.063C266.533 205.063 269.837 201.759 269.837 197.72C269.837 193.682 266.533 190.377 262.495 190.377ZM290.027 190.377C285.989 190.377 282.685 193.682 282.685 197.72C282.685 201.759 285.989 205.063 290.027 205.063C294.065 205.063 297.369 201.759 297.369 197.72C297.369 193.682 294.065 190.377 290.027 190.377Z" stroke="white" stroke-opacity="0.33" stroke-width="1.28713" stroke-linecap="round" stroke-linejoin="round"/>
<path d="M343.134 17.572H355.983C361.611 17.572 362.713 19.163 362.713 34.8281M343.134 17.572C343.134 21.1211 340.075 24.0583 336.404 24.0583C332.733 24.0583 329.674 21.1211 329.674 17.572C329.674 14.0229 332.733 11.0857 336.404 11.0857C340.197 11.0857 343.134 14.0229 343.134 17.572ZM387.92 34.8281C387.92 22.9569 386.819 17.572 380.089 17.572H356.105M387.92 34.8281C391.591 34.8281 394.65 37.7653 394.65 41.3144C394.65 44.8635 391.591 47.8007 387.92 47.8007C384.249 47.8007 381.19 44.8635 381.19 41.3144C381.19 37.7653 384.127 34.8281 387.92 34.8281ZM362.713 34.8281C366.384 34.8281 369.443 37.7653 369.443 41.3144C369.443 44.8635 366.384 47.8007 362.713 47.8007C359.042 47.8007 355.983 44.8635 355.983 41.3144C355.983 37.7653 359.042 34.8281 362.713 34.8281Z" stroke="white" stroke-opacity="0.33" stroke-width="1.28713" stroke-linecap="round" stroke-linejoin="round"/>
<path d="M83.8402 224.645H8.58505C6.74955 224.889 3.20093 224.155 3.6904 219.749V187.318C3.6904 185.849 4.4246 183.034 7.36138 183.034C10.2982 183.034 17.1507 183.034 20.2098 183.034C22.6572 183.034 25.1045 187.318 28.7755 190.377H51.4132C53.004 190.377 56.5526 191.234 57.5315 194.661V216.078M83.8402 224.645C83.8402 228.683 87.1441 231.987 91.1822 231.987C95.2203 231.987 98.5242 228.683 98.5242 224.645C98.5242 220.606 95.2203 217.302 91.1822 217.302C87.1441 217.302 83.8402 220.606 83.8402 224.645Z" stroke="white" stroke-opacity="0.33" stroke-width="1.28713" stroke-linecap="round" stroke-linejoin="round"/>
<path d="M105.866 254.016C105.866 258.055 102.562 261.359 98.5241 261.359C94.486 261.359 91.1821 258.055 91.1821 254.016C91.1821 249.978 94.486 246.673 98.5241 246.673C102.562 246.673 105.866 249.978 105.866 254.016Z" stroke="white" stroke-opacity="0.33" stroke-width="1.28713" stroke-linecap="round" stroke-linejoin="round"/>
<path d="M51.4132 525.707H-10.3817M-10.3817 525.707C-10.3817 529.746 -13.6856 533.05 -17.7237 533.05C-21.7618 533.05 -25.0657 529.746 -25.0657 525.707C-25.0657 521.669 -21.7618 518.364 -17.7237 518.364C-13.6856 518.364 -10.3817 521.669 -10.3817 525.707ZM-0.592441 512.245C-0.592441 507.472 1.97725 504.046 6.74953 504.046M50.1895 525.707C58.6328 525.707 65.4853 518.854 65.4853 510.41C65.4853 501.965 58.6328 495.112 50.1895 495.112C44.0712 495.112 38.6871 498.783 36.2398 504.046M36.2398 504.046C36.1174 504.29 35.995 504.657 35.8727 504.902M36.2398 504.046L35.8727 504.902M44.683 495.724C44.683 487.279 37.8305 480.426 29.3873 480.426C22.4124 480.426 16.5388 485.076 14.7033 491.44M14.7033 491.44C14.581 491.807 14.4586 492.297 14.3362 492.786M14.7033 491.44L14.3362 492.786M14.3362 492.786C13.8468 492.664 13.3573 492.664 12.8678 492.664C8.82975 492.664 5.52587 495.968 5.52587 500.007C5.52587 504.046 8.82975 507.35 12.8678 507.35C16.9059 507.35 20.2098 504.046 20.2098 500.007C20.2098 496.458 17.6401 493.521 14.3362 492.786ZM35.8727 504.902C31.957 505.025 28.7754 508.207 28.7754 512.245C28.7754 516.284 32.0793 519.588 36.1174 519.588C40.1555 519.588 43.4594 516.284 43.4594 512.245C43.4594 508.207 40.1555 504.902 36.1174 504.902C35.995 504.902 35.8727 504.902 35.8727 504.902Z" stroke="white" stroke-opacity="0.33" stroke-width="1.28713" stroke-linecap="round" stroke-linejoin="round"/>
<path d="M286.846 23.9359C286.846 24.0583 286.968 24.3031 286.968 24.3031L286.846 23.9359ZM286.846 23.9359L290.149 20.9987L285.867 16.7153L282.685 19.5301L282.44 19.4078C281.461 18.7958 280.36 18.3063 279.136 18.0615H279.014V13.5334H273.263V17.8168L273.018 17.9392C271.794 18.1839 270.816 18.6735 269.714 19.2854L269.47 19.4078L266.288 16.5929L262.005 20.8764L265.431 23.8136L265.309 24.1807C264.575 25.6493 264.208 27.1179 264.208 28.8313V28.9537L260.17 29.9327L261.883 35.5623L265.431 33.849L265.554 34.0937C266.166 35.3176 267.145 36.419 268.123 37.2757L268.368 37.5205L265.799 41.3144L271.427 44.1292L273.141 40.2129L273.263 39.9681H273.385C274.242 40.0905 275.098 40.2129 275.955 40.2129C276.812 40.2129 277.546 40.0905 278.28 39.9681L278.525 39.8458L280.36 44.1292L285.989 41.3144L283.542 37.5205L283.786 37.2757C284.765 36.419 285.622 35.44 286.234 34.4609L286.478 33.9714L290.027 35.6847L291.74 30.0551L287.824 29.4432V29.1984C287.824 29.076 287.824 28.9537 287.824 28.9537C287.824 27.3627 287.457 25.7717 286.846 24.3031M280.972 29.4432C280.972 32.1356 278.769 34.3385 276.077 34.3385C273.385 34.3385 271.183 32.1356 271.183 29.4432C271.183 26.7508 273.385 24.5479 276.077 24.5479C278.769 24.5479 280.972 26.7508 280.972 29.4432Z" stroke="white" stroke-opacity="0.33" stroke-width="1.28713" stroke-linecap="round" stroke-linejoin="round"/>
<path d="M244.752 400.754L258.212 401.366L267.389 416.052L263.718 420.947L253.929 417.276L243.528 426.455L246.587 436.857L242.304 441.753L227.62 432.574L228.232 419.112L211.713 401.978M211.713 401.978C210.734 400.999 208.654 395.981 208.654 384.232C212.936 383.62 222.481 383.009 226.397 385.456L229.823 388.393L230.557 389.005M211.713 401.978L217.219 397.083M230.557 389.128C230.19 389.862 229.945 390.719 229.945 391.698C229.945 395.124 232.637 397.817 236.064 397.817C237.287 397.817 238.511 397.45 239.49 396.715C241.081 395.614 242.182 393.778 242.182 391.698C242.182 388.271 239.49 385.579 236.064 385.579C233.616 385.456 231.536 386.925 230.557 389.128Z" stroke="white" stroke-opacity="0.33" stroke-width="1.28713" stroke-linecap="round" stroke-linejoin="round"/>
<path d="M134.867 561.443L111.005 562.545L94.7307 590.081L101.216 599.26L118.592 592.406L137.069 609.662L131.685 629.121L139.272 638.3L165.214 621.044L164.112 595.833L193.358 563.646M193.358 563.646C195.193 561.688 198.742 552.387 198.742 530.358C191.155 529.257 174.269 528.033 167.294 532.683L161.176 538.191L159.829 539.414M193.358 563.646L184.792 556.059M159.952 539.414C160.564 540.883 160.931 542.474 160.931 544.187C160.931 550.551 156.036 555.691 150.04 555.691C147.838 555.691 145.757 554.957 143.922 553.733C141.107 551.653 139.15 548.226 139.15 544.187C139.15 537.823 144.044 532.683 150.04 532.683C154.445 532.683 158.239 535.498 159.952 539.414ZM187.851 550.184C187.851 554.223 184.547 557.527 180.509 557.527C176.471 557.527 173.167 554.223 173.167 550.184C173.167 546.145 176.471 542.841 180.509 542.841C184.547 542.841 187.851 546.145 187.851 550.184Z" stroke="white" stroke-opacity="0.33" stroke-width="1.28713" stroke-linecap="round" stroke-linejoin="round"/>
<path d="M326.125 578.332H387.92M326.125 578.332C326.125 583.35 321.965 587.511 316.948 587.511C311.931 587.511 307.77 583.35 307.77 578.332C307.77 573.314 311.931 569.153 316.948 569.153C321.965 569.153 326.125 573.314 326.125 578.332ZM387.92 578.332H448.491M387.92 578.332L407.743 559.485M448.491 578.332C448.491 582.371 451.795 585.675 455.833 585.675C459.871 585.675 463.175 582.371 463.175 578.332C463.175 574.294 459.871 570.989 455.833 570.989C451.795 570.989 448.491 574.294 448.491 578.332ZM407.743 559.485C408.967 560.954 410.925 561.81 413.005 561.81C417.043 561.81 420.347 558.384 420.347 554.345M407.743 559.485C406.397 558.261 405.663 556.426 405.663 554.467C405.663 550.429 408.967 547.124 413.005 547.124C417.043 547.124 420.347 550.306 420.347 554.345M523.135 553.244C523.135 557.282 526.439 560.587 530.477 560.587C534.515 560.587 537.819 557.282 537.819 553.244C537.819 549.205 534.515 545.901 530.477 545.901C526.439 545.901 523.135 549.205 523.135 553.244ZM523.135 553.244L420.347 554.345" stroke="white" stroke-opacity="0.33" stroke-width="1.28713" stroke-linecap="round" stroke-linejoin="round"/>
<path d="M142.576 52.0841H147.471M140.129 47.1888C143.677 47.1888 146.369 47.1888 149.918 47.1888M138.905 42.2934C143.677 42.2934 146.369 42.2934 151.142 42.2934M136.458 38.01H152.977C152.977 32.5028 159.218 26.0164 162.154 21.8554C164.479 18.7958 165.825 15.0019 165.825 11.0857C165.825 0.560718 156.77 -7.88373 145.635 -7.88373C134.5 -7.88373 125.445 0.560718 125.445 11.0857C125.445 14.8796 126.668 18.4287 128.626 21.3659M128.626 21.3659C128.748 21.6106 128.871 21.733 128.993 21.9778M128.626 21.3659L128.993 21.9778M128.993 21.9778C126.791 22.8345 125.322 24.7926 125.322 26.9955C125.322 30.0551 128.014 32.5028 131.441 32.5028C134.255 32.5028 136.58 30.7894 137.314 28.4641C137.437 27.9746 137.559 27.485 137.559 26.9955C137.559 23.9359 134.867 21.4883 131.441 21.4883C130.584 21.4883 129.727 21.6106 128.993 21.9778Z" stroke="white" stroke-opacity="0.33" stroke-width="1.28713" stroke-linecap="round" stroke-linejoin="round"/>
<path d="M267.389 634.629H272.284M264.942 629.733C268.491 629.733 271.183 629.733 274.731 629.733M263.718 624.838C268.491 624.838 271.183 624.838 275.955 624.838M261.271 620.554H277.791C277.791 615.047 284.031 608.561 286.968 604.522C289.293 601.463 290.639 597.669 290.639 593.63C290.639 583.105 281.584 574.661 270.449 574.661C259.313 574.661 250.258 583.105 250.258 593.63C250.258 597.424 251.482 600.973 253.44 603.91M253.44 603.91C253.562 604.155 253.684 604.278 253.807 604.522M253.44 603.91L253.807 604.522M253.807 604.522C251.604 605.379 250.136 607.337 250.136 609.54C250.136 612.6 252.828 615.047 256.254 615.047C259.068 615.047 261.393 613.334 262.128 611.009C262.25 610.519 262.372 610.03 262.372 609.54C262.372 606.48 259.68 604.033 256.254 604.033C255.397 604.033 254.541 604.155 253.807 604.522Z" stroke="white" stroke-opacity="0.33" stroke-width="1.28713" stroke-linecap="round" stroke-linejoin="round"/>
<path d="M339.708 511.266H355.982L348.763 489.36C347.906 488.136 347.172 488.87 346.927 489.36L339.708 511.266Z" stroke="white" stroke-opacity="0.33" stroke-width="0.965351" stroke-miterlimit="10" stroke-linecap="round" stroke-linejoin="round"/>
<path d="M395.384 511.266H379.599L386.574 489.36C387.431 488.136 388.042 488.87 388.287 489.36L395.384 511.266Z" stroke="white" stroke-opacity="0.33" stroke-width="0.965351" stroke-miterlimit="10" stroke-linecap="round" stroke-linejoin="round"/>
<path d="M336.282 521.791L339.708 511.266L367.73 547.614C367.363 547.614 367.118 547.492 366.628 547.369C366.261 547.124 336.771 525.095 336.771 525.095C335.67 524.361 336.037 522.525 336.282 521.791Z" stroke="white" stroke-opacity="0.33" stroke-width="0.965351" stroke-miterlimit="10" stroke-linecap="round" stroke-linejoin="round"/>
<path d="M399.056 521.914L395.385 511.389L367.607 547.614C367.975 547.614 368.219 547.492 368.709 547.369C369.076 547.247 398.444 525.34 398.444 525.34C399.667 524.484 399.423 522.77 399.056 521.914Z" stroke="white" stroke-opacity="0.33" stroke-width="0.965351" stroke-miterlimit="10" stroke-linecap="round" stroke-linejoin="round"/>
<path d="M367.73 547.614L339.708 511.266H356.227L367.73 547.614Z" stroke="white" stroke-opacity="0.33" stroke-width="0.965351" stroke-miterlimit="10" stroke-linecap="round" stroke-linejoin="round"/>
<path d="M367.73 547.614L395.507 511.389H379.477L367.73 547.614Z" stroke="white" stroke-opacity="0.33" stroke-width="0.965351" stroke-miterlimit="10" stroke-linecap="round" stroke-linejoin="round"/>
<path d="M367.73 547.614L355.983 511.266H367.852L367.73 547.614Z" stroke="white" stroke-opacity="0.33" stroke-width="0.965351" stroke-miterlimit="10" stroke-linecap="round" stroke-linejoin="round"/>
<path d="M367.73 547.614L379.722 511.389H367.852L367.73 547.614Z" stroke="white" stroke-opacity="0.33" stroke-width="0.965351" stroke-miterlimit="10" stroke-linecap="round" stroke-linejoin="round"/>
<path d="M81.2705 472.226H99.2583L91.3045 447.994C90.4479 446.648 89.5914 447.382 89.3467 447.994L81.2705 472.226Z" stroke="white" stroke-opacity="0.33" stroke-width="0.965351" stroke-miterlimit="10" stroke-linecap="round" stroke-linejoin="round"/>
<path d="M142.698 472.226H125.322L133.031 447.994C133.888 446.648 134.744 447.382 134.989 447.994L142.698 472.226Z" stroke="white" stroke-opacity="0.33" stroke-width="0.965351" stroke-miterlimit="10" stroke-linecap="round" stroke-linejoin="round"/>
<path d="M77.4772 483.73L81.2705 472.104L112.107 512.245C111.617 512.245 111.373 512.123 110.883 512C110.394 511.756 77.9666 487.524 77.9666 487.524C76.8653 486.545 77.2324 484.587 77.4772 483.73Z" stroke="white" stroke-opacity="0.33" stroke-width="0.965351" stroke-miterlimit="10" stroke-linecap="round" stroke-linejoin="round"/>
<path d="M146.859 483.975L142.821 472.348L112.229 512.245C112.719 512.245 112.963 512.123 113.453 512C113.942 511.756 146.247 487.769 146.247 487.769C147.348 486.79 147.104 484.831 146.859 483.975Z" stroke="white" stroke-opacity="0.33" stroke-width="0.965351" stroke-miterlimit="10" stroke-linecap="round" stroke-linejoin="round"/>
<path d="M112.229 512.245L81.3928 472.104L99.6254 472.226L112.229 512.245Z" stroke="white" stroke-opacity="0.33" stroke-width="0.965351" stroke-miterlimit="10" stroke-linecap="round" stroke-linejoin="round"/>
<path d="M112.229 512.245L142.821 472.348H125.2L112.229 512.245Z" stroke="white" stroke-opacity="0.33" stroke-width="0.965351" stroke-miterlimit="10" stroke-linecap="round" stroke-linejoin="round"/>
<path d="M112.229 512.245L99.2583 472.226H112.351L112.229 512.245Z" stroke="white" stroke-opacity="0.33" stroke-width="0.965351" stroke-miterlimit="10" stroke-linecap="round" stroke-linejoin="round"/>
<path d="M112.229 512.245L125.445 472.226H112.352L112.229 512.245Z" stroke="white" stroke-opacity="0.33" stroke-width="0.965351" stroke-miterlimit="10" stroke-linecap="round" stroke-linejoin="round"/>
<path d="M273.141 261.237H302.876L289.66 221.218C288.192 218.892 286.846 220.239 286.356 221.218L273.141 261.237Z" stroke="white" stroke-opacity="0.33" stroke-width="0.965351" stroke-miterlimit="10" stroke-linecap="round" stroke-linejoin="round"/>
<path d="M374.827 261.237H346.071L358.919 221.218C360.388 218.892 361.611 220.239 362.101 221.218L374.827 261.237Z" stroke="white" stroke-opacity="0.33" stroke-width="0.965351" stroke-miterlimit="10" stroke-linecap="round" stroke-linejoin="round"/>
<path d="M266.9 280.206L273.263 260.992L324.412 327.446C323.678 327.324 323.188 327.324 322.454 326.957C321.72 326.59 267.879 286.448 267.879 286.448C265.921 284.857 266.41 281.675 266.9 280.206Z" stroke="white" stroke-opacity="0.33" stroke-width="0.965351" stroke-miterlimit="10" stroke-linecap="round" stroke-linejoin="round"/>
<path d="M381.557 280.574L374.949 261.359L324.29 327.446C325.024 327.324 325.513 327.324 326.247 326.957C326.982 326.59 380.578 286.815 380.578 286.815C382.536 285.224 382.046 282.042 381.557 280.574Z" stroke="white" stroke-opacity="0.33" stroke-width="0.965351" stroke-miterlimit="10" stroke-linecap="round" stroke-linejoin="round"/>
<path d="M324.29 327.446L273.263 260.992L303.487 261.115L324.29 327.446Z" stroke="white" stroke-opacity="0.33" stroke-width="0.965351" stroke-miterlimit="10" stroke-linecap="round" stroke-linejoin="round"/>
<path d="M324.29 327.446L374.949 261.36L345.704 261.237L324.29 327.446Z" stroke="white" stroke-opacity="0.33" stroke-width="0.965351" stroke-miterlimit="10" stroke-linecap="round" stroke-linejoin="round"/>
<path d="M324.29 327.446L302.875 261.115L324.412 261.237L324.29 327.446Z" stroke="white" stroke-opacity="0.33" stroke-width="0.965351" stroke-miterlimit="10" stroke-linecap="round" stroke-linejoin="round"/>
<path d="M324.29 327.446L346.071 261.237L324.534 261.115L324.29 327.446Z" stroke="white" stroke-opacity="0.33" stroke-width="0.965351" stroke-miterlimit="10" stroke-linecap="round" stroke-linejoin="round"/>
<path d="M10.1757 279.839H-30.5723L-12.4621 223.298C-10.3818 220.116 -8.54635 221.952 -7.93452 223.298L10.1757 279.839Z" stroke="white" stroke-opacity="0.33" stroke-width="1.15842" stroke-miterlimit="10" stroke-linecap="round" stroke-linejoin="round"/>
<path d="M19.7203 307.253L10.2981 280.084L-61.2861 373.463C-60.1848 373.34 -59.573 373.218 -58.4717 372.851C-57.3704 372.361 18.3742 316.065 18.3742 316.065C21.0663 313.862 20.3321 309.334 19.7203 307.253Z" stroke="white" stroke-opacity="0.33" stroke-width="1.15842" stroke-miterlimit="10" stroke-linecap="round" stroke-linejoin="round"/>
<path d="M-61.2861 373.463L10.2981 280.084L-31.0617 279.962L-61.2861 373.463Z" stroke="white" stroke-opacity="0.33" stroke-width="1.15842" stroke-miterlimit="10" stroke-linecap="round" stroke-linejoin="round"/>
<path d="M167.049 406.628V374.931C167.049 370.403 164.724 368.078 160.197 368.078H151.142C146.614 368.078 144.289 370.403 144.289 374.931V406.628C144.289 411.157 146.614 413.482 151.142 413.482H160.197C164.724 413.482 167.049 411.157 167.049 406.628Z" stroke="white" stroke-opacity="0.33" stroke-width="0.965351" stroke-linecap="round"/>
<path d="M144.411 377.134H155.791" stroke="white" stroke-opacity="0.33" stroke-width="0.965351" stroke-linecap="round"/>
<path d="M144.411 404.426H153.466" stroke="white" stroke-opacity="0.33" stroke-width="0.965351" stroke-linecap="round"/>
<path d="M144.411 395.247L155.791 395.369" stroke="white" stroke-opacity="0.33" stroke-width="0.965351" stroke-linecap="round"/>
<path d="M144.411 386.19H151.264" stroke="white" stroke-opacity="0.33" stroke-width="0.965351" stroke-linecap="round"/>
<path d="M130.829 368.078C127.158 368.078 124.099 371.137 124.099 374.809V404.181C124.099 405.16 124.588 406.751 125.078 407.607L126.913 410.667C128.993 414.216 132.542 414.216 134.744 410.667L136.58 407.607C137.069 406.751 137.559 405.16 137.559 404.181V374.809C137.559 371.137 134.5 368.078 130.829 368.078Z" stroke="white" stroke-opacity="0.33" stroke-width="0.965351" stroke-linecap="round"/>
<path d="M137.559 379.459H124.221" stroke="white" stroke-opacity="0.33" stroke-width="0.965351" stroke-linecap="round"/>
<path d="M447.512 314.351C444.331 314.351 441.761 316.921 441.761 319.981V344.947C441.761 345.804 442.128 347.15 442.618 347.884L444.209 350.455C446.044 353.514 448.981 353.514 450.816 350.455L452.407 347.884C452.897 347.15 453.264 345.804 453.264 344.947V319.981C453.141 316.799 450.694 314.351 447.512 314.351Z" stroke="white" stroke-opacity="0.33" stroke-width="0.965351" stroke-linecap="round"/>
<path d="M453.141 323.897H441.761" stroke="white" stroke-opacity="0.33" stroke-width="0.965351" stroke-linecap="round"/>
<path d="M268.735 514.57H255.153C243.161 514.57 240.102 511.511 240.102 499.517V478.1C240.102 466.107 243.161 463.047 255.153 463.047H292.841C304.833 463.047 307.892 466.107 307.892 478.1" stroke="white" stroke-opacity="0.33" stroke-width="1.28713" stroke-linecap="round" stroke-linejoin="round"/>
<path d="M268.735 530.847V514.693" stroke="white" stroke-opacity="0.33" stroke-width="1.28713" stroke-linecap="round" stroke-linejoin="round"/>
<path d="M240.102 500.374H268.735" stroke="white" stroke-opacity="0.33" stroke-width="1.28713" stroke-linecap="round" stroke-linejoin="round"/>
<path d="M257.11 530.847H268.735" stroke="white" stroke-opacity="0.33" stroke-width="1.28713" stroke-linecap="round" stroke-linejoin="round"/>
<path d="M311.686 499.762V520.2C311.686 528.645 309.606 530.848 301.04 530.848H288.314C279.871 530.848 277.668 528.767 277.668 520.2V499.762C277.668 491.318 279.748 489.237 288.314 489.237H301.04C309.606 489.237 311.686 491.318 311.686 499.762Z" stroke="white" stroke-opacity="0.33" stroke-width="1.28713" stroke-linecap="round" stroke-linejoin="round"/>
<path d="M207.43 141.301H199.476C192.501 141.301 190.666 139.588 190.666 132.49V120.007C190.666 113.031 192.379 111.195 199.476 111.195H221.502C228.477 111.195 230.312 112.909 230.312 120.007" stroke="white" stroke-opacity="0.33" stroke-width="0.965351" stroke-linecap="round" stroke-linejoin="round"/>
<path d="M207.43 150.725V141.301" stroke="white" stroke-opacity="0.33" stroke-width="0.965351" stroke-linecap="round" stroke-linejoin="round"/>
<path d="M190.788 132.979H207.43" stroke="white" stroke-opacity="0.33" stroke-width="0.965351" stroke-linecap="round" stroke-linejoin="round"/>
<path d="M200.7 150.725H207.552" stroke="white" stroke-opacity="0.33" stroke-width="0.965351" stroke-linecap="round" stroke-linejoin="round"/>
<path d="M232.515 132.735V144.606C232.515 149.501 231.292 150.725 226.397 150.725H218.933C214.038 150.725 212.814 149.501 212.814 144.606V132.735C212.814 127.839 214.038 126.616 218.933 126.616H226.397C231.292 126.493 232.515 127.717 232.515 132.735Z" stroke="white" stroke-opacity="0.33" stroke-width="0.965351" stroke-linecap="round" stroke-linejoin="round"/>
<path d="M82.2493 334.055H74.2955C67.3206 334.055 65.4851 332.342 65.4851 325.244V312.76C65.4851 305.785 67.1982 303.949 74.2955 303.949H96.3214C103.296 303.949 105.132 305.662 105.132 312.76" stroke="white" stroke-opacity="0.33" stroke-width="0.965351" stroke-linecap="round" stroke-linejoin="round"/>
<path d="M82.2493 343.479V334.055" stroke="white" stroke-opacity="0.33" stroke-width="0.965351" stroke-linecap="round" stroke-linejoin="round"/>
<path d="M65.6074 325.733H82.2492" stroke="white" stroke-opacity="0.33" stroke-width="0.965351" stroke-linecap="round" stroke-linejoin="round"/>
<path d="M75.519 343.479H82.3716" stroke="white" stroke-opacity="0.33" stroke-width="0.965351" stroke-linecap="round" stroke-linejoin="round"/>
<path d="M107.334 325.488V337.36C107.334 342.255 106.111 343.479 101.216 343.479H93.7516C88.8569 343.479 87.6333 342.255 87.6333 337.36V325.488C87.6333 320.593 88.8569 319.369 93.7516 319.369H101.216C106.111 319.247 107.334 320.471 107.334 325.488Z" stroke="white" stroke-opacity="0.33" stroke-width="0.965351" stroke-linecap="round" stroke-linejoin="round"/>
<path d="M51.6578 640.748C64.8733 640.748 75.5192 630.1 75.5192 616.883C75.5192 603.666 64.8733 593.018 51.6578 593.018C38.4422 593.018 27.7964 603.666 27.7964 616.883C27.7964 630.1 38.5646 640.748 51.6578 640.748Z" stroke="white" stroke-opacity="0.33" stroke-width="0.965351" stroke-linecap="round" stroke-linejoin="round"/>
<path d="M42.1132 595.466H44.4381C39.7882 609.418 39.7882 624.471 44.4381 638.422H42.1132" stroke="white" stroke-opacity="0.33" stroke-width="0.965351" stroke-linecap="round" stroke-linejoin="round"/>
<path d="M58.8774 595.466C63.5274 609.418 63.5274 624.471 58.8774 638.422" stroke="white" stroke-opacity="0.33" stroke-width="0.965351" stroke-linecap="round" stroke-linejoin="round"/>
<path d="M30.2437 626.429V624.104C44.1934 628.754 59.2444 628.754 73.1942 624.104V626.429" stroke="white" stroke-opacity="0.33" stroke-width="0.965351" stroke-linecap="round" stroke-linejoin="round"/>
<path d="M30.2437 609.785C44.1934 605.134 59.2444 605.134 73.1942 609.785" stroke="white" stroke-opacity="0.33" stroke-width="0.965351" stroke-linecap="round" stroke-linejoin="round"/>
<path d="M239.979 362.815C248.423 368.445 259.803 366.242 265.431 357.92C271.06 349.475 268.858 338.094 260.537 332.464C252.094 326.835 240.713 329.037 235.085 337.36C229.333 345.804 231.536 357.186 239.979 362.815Z" stroke="white" stroke-opacity="0.33" stroke-width="0.742934" stroke-linecap="round" stroke-linejoin="round"/>
<path d="M253.317 329.894L254.786 330.873C245.853 337.727 239.367 347.395 236.308 358.165L234.84 357.186" stroke="white" stroke-opacity="0.33" stroke-width="0.742934" stroke-linecap="round" stroke-linejoin="round"/>
<path d="M263.963 337.115C260.904 348.007 254.419 357.553 245.486 364.406" stroke="white" stroke-opacity="0.33" stroke-width="0.742934" stroke-linecap="round" stroke-linejoin="round"/>
<path d="M232.393 344.458L233.371 342.989C240.224 351.923 249.891 358.409 260.659 361.469L259.68 362.938" stroke="white" stroke-opacity="0.33" stroke-width="0.742934" stroke-linecap="round" stroke-linejoin="round"/>
<path d="M239.612 333.81C250.503 336.87 260.047 343.356 266.9 352.29" stroke="white" stroke-opacity="0.33" stroke-width="0.742934" stroke-linecap="round" stroke-linejoin="round"/>
<path d="M44.9275 276.413C50.1893 285.102 61.5694 287.794 70.135 282.532C78.823 277.269 81.515 265.888 76.2533 257.321C70.9915 248.632 59.6115 245.939 51.0459 251.202C42.3579 256.464 39.5434 267.846 44.9275 276.413Z" stroke="white" stroke-opacity="0.33" stroke-width="0.742934" stroke-linecap="round" stroke-linejoin="round"/>
<path d="M70.7468 251.936L71.7257 253.527C60.7127 256.097 50.8011 262.094 43.5815 270.783L42.6025 269.192" stroke="white" stroke-opacity="0.33" stroke-width="0.742934" stroke-linecap="round" stroke-linejoin="round"/>
<path d="M77.477 262.951C70.2574 271.64 60.3457 277.636 49.3328 280.207" stroke="white" stroke-opacity="0.33" stroke-width="0.742934" stroke-linecap="round" stroke-linejoin="round"/>
<path d="M45.6619 256.587L47.2526 255.607C49.8223 266.622 55.8183 276.535 64.5062 283.756L62.9155 284.735" stroke="white" stroke-opacity="0.33" stroke-width="0.742934" stroke-linecap="round" stroke-linejoin="round"/>
<path d="M56.5522 249.855C65.2402 257.076 71.2362 266.989 73.8059 278.004" stroke="white" stroke-opacity="0.33" stroke-width="0.742934" stroke-linecap="round" stroke-linejoin="round"/>
<path d="M300.795 379.215C300.551 379.215 300.306 379.215 300.061 379.215C295.166 379.092 291.251 375.054 291.251 370.158C291.251 365.14 295.289 360.979 300.428 360.979C305.445 360.979 309.606 365.018 309.606 370.158C309.606 375.054 305.69 378.97 300.795 379.215Z" stroke="white" stroke-opacity="0.33" stroke-width="1.08016" stroke-linecap="round" stroke-linejoin="round"/>
<path d="M315.724 365.018C319.762 365.018 322.944 368.2 322.944 372.239C322.944 376.155 319.884 379.337 315.969 379.459C315.846 379.459 315.602 379.459 315.479 379.459" stroke="white" stroke-opacity="0.33" stroke-width="1.08016" stroke-linecap="round" stroke-linejoin="round"/>
<path d="M290.516 386.802C285.499 390.107 285.499 395.614 290.516 398.918C296.145 402.712 305.445 402.712 311.074 398.918C316.091 395.614 316.091 390.107 311.074 386.802C305.567 383.008 296.268 383.008 290.516 386.802Z" stroke="white" stroke-opacity="0.33" stroke-width="1.08016" stroke-linecap="round" stroke-linejoin="round"/>
<path d="M319.64 397.939C321.108 397.572 322.454 397.083 323.678 396.103C326.859 393.656 326.859 389.74 323.678 387.292C322.576 386.435 321.23 385.823 319.762 385.578" stroke="white" stroke-opacity="0.33" stroke-width="1.08016" stroke-linecap="round" stroke-linejoin="round"/>
<path d="M205.962 615.292C205.717 615.292 205.472 615.292 205.227 615.292C200.333 615.17 196.417 611.131 196.417 606.236C196.417 601.218 200.455 597.057 205.594 597.057C210.611 597.057 214.772 601.096 214.772 606.236C214.772 611.131 210.856 615.17 205.962 615.292Z" stroke="white" stroke-opacity="0.33" stroke-width="1.08016" stroke-linecap="round" stroke-linejoin="round"/>
<path d="M220.89 601.218C224.928 601.218 228.11 604.4 228.11 608.439C228.11 612.355 225.051 615.537 221.135 615.659C221.013 615.659 220.768 615.659 220.646 615.659" stroke="white" stroke-opacity="0.33" stroke-width="1.08016" stroke-linecap="round" stroke-linejoin="round"/>
<path d="M195.683 622.88C190.666 626.184 190.666 631.691 195.683 634.996C201.312 638.79 210.611 638.79 216.24 634.996C221.257 631.691 221.257 626.184 216.24 622.88C210.734 619.086 201.434 619.086 195.683 622.88Z" stroke="white" stroke-opacity="0.33" stroke-width="1.08016" stroke-linecap="round" stroke-linejoin="round"/>
<path d="M224.806 634.017C226.274 633.649 227.62 633.16 228.844 632.181C232.026 629.733 232.026 625.817 228.844 623.369C227.743 622.513 226.397 621.901 224.928 621.656" stroke="white" stroke-opacity="0.33" stroke-width="1.08016" stroke-linecap="round" stroke-linejoin="round"/>
<path d="M209.143 38.989C208.898 38.989 208.654 38.989 208.409 38.989C203.514 38.8667 199.598 34.828 199.598 29.9327C199.598 24.915 203.636 20.7539 208.776 20.7539C213.793 20.7539 217.953 24.7926 217.953 29.9327C217.953 34.828 214.038 38.7443 209.143 38.989Z" stroke="white" stroke-opacity="0.33" stroke-width="1.08016" stroke-linecap="round" stroke-linejoin="round"/>
<path d="M224.072 24.7926C228.11 24.7926 231.291 27.9746 231.291 32.0132C231.291 35.9295 228.232 39.1114 224.316 39.2338C224.194 39.2338 223.949 39.2338 223.827 39.2338" stroke="white" stroke-opacity="0.33" stroke-width="1.08016" stroke-linecap="round" stroke-linejoin="round"/>
<path d="M198.864 46.5768C193.847 49.8811 193.847 55.3884 198.864 58.6927C204.493 62.4866 213.793 62.4866 219.422 58.6927C224.439 55.3884 224.439 49.8811 219.422 46.5768C213.793 42.7829 204.616 42.7829 198.864 46.5768Z" stroke="white" stroke-opacity="0.33" stroke-width="1.08016" stroke-linecap="round" stroke-linejoin="round"/>
<path d="M227.988 57.7137C229.456 57.3466 230.802 56.857 232.026 55.878C235.207 53.4303 235.207 49.514 232.026 47.0664C230.924 46.2097 229.578 45.5978 228.11 45.353" stroke="white" stroke-opacity="0.33" stroke-width="1.08016" stroke-linecap="round" stroke-linejoin="round"/>
</g>
<path d="M109.824 471.991L195.419 210.381L246.904 207.806L337.969 494.837L109.824 471.991Z" fill="#819CB0"/>
<path d="M72.7718 503.705C27.6484 483.885 1.01494 518.129 -6.66138 537.729V646.076H459.925V529.14C448.177 441.405 389.392 457.79 361.468 476.949C343.846 441.802 322.53 460.763 314.075 474.636C290.045 447.946 260.007 463.515 247.992 474.636C238.914 462.745 221.959 466.378 214.617 469.681C209.811 432.156 180 421 164.888 422.114C135.784 426.343 123.613 455.587 121.166 469.681C84.8536 455.675 73.773 486.528 72.7718 503.705Z" fill="white" stroke="#341472" stroke-width="7.72281" stroke-linecap="round"/>
<path d="M31.6309 552.759C37.1012 545.679 48.6854 528.303 73.141 542.14" stroke="#341472" stroke-width="6.43567" stroke-linecap="round"/>
<path d="M117.869 509.961C120.229 501.595 133.636 484.862 155.518 497.412" stroke="#341472" stroke-width="6.43567" stroke-linecap="round"/>
<path d="M322.523 556.62C337.54 548.146 368.603 540.531 372.721 577.858C384.52 576.034 407.088 579.595 402.969 608.427" stroke="#341472" stroke-width="7.72281" stroke-linecap="round"/>
<path d="M240.718 520.742C240.537 521.299 240.185 521.785 239.711 522.129C239.237 522.473 238.666 522.659 238.08 522.659H212.934C212.348 522.659 211.777 522.473 211.304 522.129C210.83 521.785 210.477 521.3 210.296 520.743L204.11 501.733L194.154 532.386L225.498 555.159L256.847 532.386L246.893 501.735L240.718 520.742Z" fill="#FC6D26"/>
<path d="M246.867 492.907C246.01 492.91 245.177 493.184 244.485 493.689C243.793 494.193 243.278 494.904 243.013 495.718L236.065 517.11H214.948L207.987 495.717C207.723 494.903 207.208 494.193 206.517 493.689C205.825 493.184 204.992 492.911 204.136 492.907H204.113C203.252 492.908 202.413 493.18 201.716 493.685C201.018 494.19 200.498 494.902 200.228 495.72L188.841 530.785C188.488 531.864 188.486 533.029 188.836 534.109C189.187 535.19 189.871 536.132 190.791 536.799L223.868 560.831C224.342 561.175 224.912 561.361 225.498 561.361C226.084 561.361 226.655 561.175 227.129 560.831L260.212 536.797C261.131 536.13 261.814 535.189 262.164 534.109C262.514 533.029 262.512 531.866 262.159 530.787L250.762 495.69C250.489 494.878 249.968 494.173 249.273 493.673C248.578 493.174 247.743 492.906 246.887 492.907H246.867ZM225.498 555.158L194.154 532.386L204.111 501.733L210.296 520.743C210.477 521.3 210.83 521.785 211.304 522.129C211.778 522.473 212.348 522.659 212.934 522.659H238.08C238.666 522.659 239.236 522.473 239.71 522.129C240.184 521.785 240.537 521.299 240.718 520.742L246.892 501.734L256.846 532.386L225.498 555.158Z" fill="#380D75"/>
<path d="M189.844 603.33C188.823 603.747 187.495 604.153 185.859 604.549C184.234 604.945 182.63 605.143 181.047 605.143C177.391 605.143 174.474 604.09 172.297 601.986C170.13 599.872 169.047 596.877 169.047 593.002C169.047 589.356 170.13 586.434 172.297 584.236C174.474 582.038 177.448 580.939 181.219 580.939C183.167 580.939 184.75 581.127 185.969 581.502C187.188 581.867 188.448 582.367 189.75 583.002V588.455H189.219C188.938 588.236 188.531 587.929 188 587.533C187.479 587.127 186.969 586.783 186.469 586.502C185.885 586.169 185.208 585.882 184.438 585.643C183.677 585.403 182.87 585.283 182.016 585.283C181.016 585.283 180.104 585.439 179.281 585.752C178.458 586.064 177.724 586.544 177.078 587.189C176.464 587.814 175.974 588.606 175.609 589.564C175.255 590.523 175.078 591.637 175.078 592.908C175.078 595.627 175.76 597.632 177.125 598.924C178.49 600.215 180.354 600.861 182.719 600.861C182.927 600.861 183.172 600.856 183.453 600.846C183.734 600.835 183.979 600.82 184.188 600.799V596.236H179.672V591.877H189.844V603.33ZM199.406 604.658H193.938V587.111H199.406V604.658ZM199.562 584.611H193.781V580.346H199.562V584.611ZM210.312 605.002C208.083 605.002 206.458 604.544 205.438 603.627C204.427 602.71 203.922 601.21 203.922 599.127V590.924H201.828V587.111H203.922V582.096H209.391V587.111H214.656V590.924H209.391V597.143C209.391 597.757 209.396 598.294 209.406 598.752C209.417 599.21 209.5 599.622 209.656 599.986C209.802 600.351 210.057 600.643 210.422 600.861C210.797 601.07 211.339 601.174 212.047 601.174C212.339 601.174 212.719 601.111 213.188 600.986C213.667 600.861 214 600.747 214.188 600.643H214.656V604.502C214.062 604.658 213.432 604.778 212.766 604.861C212.099 604.955 211.281 605.002 210.312 605.002ZM232.797 585.83H223.031V590.221H232.016V594.658H223.031V604.658H217.219V581.393H232.797V585.83ZM245.172 600.08V596.424C244.245 596.518 243.495 596.601 242.922 596.674C242.349 596.736 241.786 596.867 241.234 597.064C240.755 597.231 240.38 597.486 240.109 597.83C239.849 598.163 239.719 598.611 239.719 599.174C239.719 599.997 239.938 600.564 240.375 600.877C240.823 601.179 241.479 601.33 242.344 601.33C242.823 601.33 243.312 601.221 243.812 601.002C244.312 600.783 244.766 600.476 245.172 600.08ZM245.172 602.799C244.797 603.111 244.458 603.393 244.156 603.643C243.865 603.893 243.469 604.143 242.969 604.393C242.479 604.632 242 604.814 241.531 604.939C241.073 605.064 240.427 605.127 239.594 605.127C238.042 605.127 236.75 604.606 235.719 603.564C234.698 602.523 234.188 601.21 234.188 599.627C234.188 598.325 234.448 597.273 234.969 596.471C235.49 595.669 236.24 595.033 237.219 594.564C238.208 594.085 239.391 593.752 240.766 593.564C242.141 593.377 243.62 593.231 245.203 593.127V593.033C245.203 592.064 244.844 591.398 244.125 591.033C243.417 590.658 242.349 590.471 240.922 590.471C240.276 590.471 239.521 590.59 238.656 590.83C237.792 591.059 236.948 591.356 236.125 591.721H235.656V587.486C236.198 587.33 237.073 587.148 238.281 586.939C239.49 586.721 240.708 586.611 241.938 586.611C244.958 586.611 247.156 587.117 248.531 588.127C249.917 589.127 250.609 590.658 250.609 592.721V604.658H245.172V602.799ZM260 605.143C258.708 605.143 257.484 605.002 256.328 604.721C255.182 604.439 254.234 604.111 253.484 603.736V599.111H253.938C254.198 599.309 254.495 599.528 254.828 599.768C255.161 600.007 255.625 600.257 256.219 600.518C256.729 600.757 257.302 600.965 257.938 601.143C258.583 601.309 259.281 601.393 260.031 601.393C260.802 601.393 261.479 601.273 262.062 601.033C262.656 600.794 262.953 600.413 262.953 599.893C262.953 599.486 262.818 599.179 262.547 598.971C262.276 598.762 261.75 598.564 260.969 598.377C260.552 598.273 260.026 598.163 259.391 598.049C258.755 597.924 258.193 597.783 257.703 597.627C256.328 597.2 255.292 596.57 254.594 595.736C253.906 594.893 253.562 593.788 253.562 592.424C253.562 591.643 253.74 590.908 254.094 590.221C254.458 589.523 254.99 588.903 255.688 588.361C256.385 587.83 257.245 587.408 258.266 587.096C259.297 586.783 260.458 586.627 261.75 586.627C262.979 586.627 264.109 586.752 265.141 587.002C266.172 587.242 267.042 587.533 267.75 587.877V592.314H267.312C267.125 592.169 266.828 591.976 266.422 591.736C266.016 591.486 265.62 591.273 265.234 591.096C264.776 590.887 264.26 590.715 263.688 590.58C263.125 590.445 262.547 590.377 261.953 590.377C261.161 590.377 260.49 590.512 259.938 590.783C259.396 591.054 259.125 591.413 259.125 591.861C259.125 592.257 259.26 592.57 259.531 592.799C259.802 593.028 260.391 593.252 261.297 593.471C261.766 593.585 262.302 593.7 262.906 593.814C263.521 593.919 264.109 594.064 264.672 594.252C265.932 594.658 266.885 595.257 267.531 596.049C268.188 596.83 268.516 597.872 268.516 599.174C268.516 599.997 268.323 600.783 267.938 601.533C267.552 602.273 267.005 602.898 266.297 603.408C265.547 603.96 264.661 604.387 263.641 604.689C262.63 604.992 261.417 605.143 260 605.143ZM277.844 605.002C275.615 605.002 273.99 604.544 272.969 603.627C271.958 602.71 271.453 601.21 271.453 599.127V590.924H269.359V587.111H271.453V582.096H276.922V587.111H282.188V590.924H276.922V597.143C276.922 597.757 276.927 598.294 276.938 598.752C276.948 599.21 277.031 599.622 277.188 599.986C277.333 600.351 277.589 600.643 277.953 600.861C278.328 601.07 278.87 601.174 279.578 601.174C279.87 601.174 280.25 601.111 280.719 600.986C281.198 600.861 281.531 600.747 281.719 600.643H282.188V604.502C281.594 604.658 280.964 604.778 280.297 604.861C279.63 604.955 278.812 605.002 277.844 605.002Z" fill="#181C20"/>
<path d="M207.819 204.211L203.529 226.872L207.343 206.726H210.924V217.683L216.38 211.191C216.864 210.616 217.466 210.153 218.147 209.833C218.827 209.513 219.568 209.344 220.319 209.338C221.071 209.332 221.815 209.488 222.5 209.797C223.186 210.105 223.796 210.559 224.29 211.125L229.71 217.346V206.726H233.291L276.147 433.141L232.815 204.211C232.739 203.812 232.743 203.402 232.826 203.005C232.909 202.608 233.069 202.231 233.297 201.895C233.526 201.56 233.818 201.273 234.158 201.051C234.497 200.828 234.877 200.675 235.276 200.599C235.675 200.524 236.084 200.528 236.481 200.61C236.879 200.693 237.256 200.853 237.591 201.082C237.926 201.311 238.213 201.603 238.436 201.942C238.658 202.282 238.812 202.662 238.887 203.061L277.36 406.322V406.318L238.412 200.546H223.528V203.606C221.428 203.007 219.2 203.016 217.104 203.631V200.546H204.765C204.964 200.544 205.162 200.562 205.357 200.599C205.756 200.675 206.136 200.828 206.475 201.05C206.815 201.273 207.107 201.56 207.336 201.895C207.564 202.23 207.725 202.607 207.808 203.005C207.891 203.402 207.894 203.812 207.819 204.211Z" fill="#341472"/>
<path d="M194.576 240.927L201.745 203.062C201.876 202.367 202.241 201.738 202.78 201.28C203.319 200.822 203.999 200.563 204.706 200.546H202.221L194.576 240.927Z" fill="#341472"/>
<path d="M276.146 433.142L276.555 435.309L277.36 435.426V435.051C276.727 434.593 276.293 433.91 276.146 433.142Z" fill="#341472"/>
<path d="M204.188 291.954C203.373 291.882 202.562 292.134 201.932 292.655C201.301 293.177 200.902 293.926 200.82 294.74L198.006 324.469C197.929 325.285 198.179 326.098 198.701 326.73C199.224 327.362 199.975 327.76 200.791 327.837C200.891 327.846 200.989 327.851 201.087 327.851C201.856 327.85 202.596 327.562 203.165 327.045C203.733 326.527 204.088 325.816 204.16 325.051L206.974 295.322C207.052 294.506 206.801 293.693 206.279 293.061C205.756 292.43 205.004 292.031 204.188 291.954Z" fill="#341472"/>
<path d="M198.539 351.636C197.723 351.563 196.912 351.815 196.282 352.337C195.651 352.859 195.252 353.608 195.17 354.422L189.987 409.184C189.91 409.999 190.16 410.813 190.682 411.444C191.204 412.076 191.956 412.474 192.772 412.552C192.871 412.56 192.969 412.565 193.067 412.565C193.836 412.564 194.577 412.276 195.145 411.759C195.713 411.241 196.067 410.53 196.14 409.765L201.324 355.004C201.401 354.188 201.151 353.375 200.628 352.743C200.106 352.112 199.354 351.714 198.539 351.636Z" fill="#341472"/>
<path d="M220.309 374.142C220.715 374.142 221.116 374.062 221.491 373.907C221.866 373.751 222.207 373.524 222.494 373.237C222.781 372.95 223.009 372.609 223.164 372.234C223.319 371.859 223.399 371.457 223.399 371.051L223.407 274.158C223.407 273.752 223.327 273.35 223.171 272.975C223.016 272.6 222.788 272.259 222.501 271.972C222.215 271.685 221.874 271.458 221.499 271.302C221.124 271.147 220.722 271.067 220.316 271.067C219.91 271.067 219.509 271.147 219.134 271.302C218.759 271.458 218.418 271.685 218.131 271.972C217.844 272.259 217.617 272.6 217.461 272.975C217.306 273.35 217.226 273.752 217.226 274.158L217.218 371.051C217.218 371.457 217.298 371.859 217.453 372.234C217.609 372.609 217.836 372.95 218.123 373.237C218.41 373.524 218.751 373.751 219.126 373.907C219.501 374.062 219.903 374.142 220.309 374.142Z" fill="#341472"/>
<path d="M220.313 400.976C221.133 400.976 221.919 401.302 222.499 401.881C223.078 402.461 223.404 403.247 223.404 404.067V440.239C223.404 441.059 223.078 441.845 222.498 442.425C221.919 443.004 221.133 443.33 220.313 443.33C219.493 443.33 218.707 443.005 218.128 442.425C217.548 441.846 217.223 441.06 217.223 440.24V404.067C217.223 403.247 217.549 402.461 218.128 401.881C218.708 401.302 219.494 400.976 220.313 400.976Z" fill="#341472"/>
<path d="M242.528 356.273C243.344 356.196 244.096 355.798 244.618 355.166C245.141 354.534 245.391 353.721 245.314 352.905L239.844 295.094C239.762 294.282 239.362 293.535 238.731 293.016C238.1 292.498 237.29 292.25 236.477 292.327C235.664 292.404 234.915 292.799 234.393 293.427C233.87 294.054 233.617 294.863 233.689 295.676L239.159 353.487C239.232 354.253 239.587 354.963 240.156 355.481C240.724 355.998 241.465 356.286 242.233 356.287C242.331 356.286 242.429 356.281 242.528 356.273Z" fill="#341472"/>
<path d="M244.422 376.305C243.606 376.383 242.854 376.781 242.332 377.412C241.809 378.044 241.559 378.857 241.636 379.673L246.438 430.422C246.511 431.187 246.866 431.898 247.434 432.415C248.003 432.933 248.743 433.22 249.512 433.221C249.61 433.221 249.708 433.216 249.807 433.208C250.623 433.131 251.375 432.732 251.897 432.101C252.42 431.469 252.67 430.656 252.593 429.84L247.79 379.091C247.71 378.276 247.311 377.526 246.68 377.004C246.05 376.482 245.238 376.231 244.422 376.305Z" fill="#341472"/>
<path d="M249.071 201.599H190.82V98.9957C190.82 89.264 192.903 79.645 196.929 70.7852C200.956 61.9254 206.832 54.03 214.162 47.6297C215.764 46.231 217.819 45.4603 219.946 45.4603C222.072 45.4603 224.127 46.231 225.729 47.6297C233.06 54.03 238.936 61.9254 242.962 70.7852C246.988 79.645 249.071 89.264 249.071 98.9957V201.599Z" fill="white"/>
<path d="M249.072 205.307H190.82C190.333 205.307 189.851 205.211 189.401 205.025C188.951 204.839 188.542 204.565 188.198 204.221C187.853 203.877 187.58 203.468 187.394 203.018C187.207 202.568 187.112 202.086 187.112 201.598V98.9956C187.111 88.7345 189.307 78.5921 193.552 69.2504C197.797 59.9087 203.993 51.5841 211.724 44.8364C214.005 42.8563 216.925 41.7661 219.946 41.7661C222.967 41.7661 225.887 42.8563 228.168 44.8364C235.899 51.5844 242.094 59.909 246.34 69.2506C250.585 78.5923 252.781 88.7345 252.781 98.9956V201.598C252.781 202.086 252.685 202.568 252.498 203.018C252.312 203.468 252.039 203.877 251.695 204.221C251.35 204.565 250.941 204.839 250.491 205.025C250.041 205.211 249.559 205.307 249.072 205.307ZM194.529 197.89H245.363V98.9956C245.364 89.7932 243.394 80.6973 239.587 72.3193C235.78 63.9414 230.223 56.4755 223.291 50.4236C222.363 49.6184 221.175 49.175 219.946 49.175C218.718 49.175 217.53 49.6184 216.602 50.4236C209.669 56.4754 204.112 63.9412 200.305 72.3192C196.498 80.6971 194.528 89.7931 194.529 98.9956V197.89Z" fill="#341472"/>
<path d="M190.82 191.832L147.836 198.483V184.928C147.836 174.837 149.977 164.86 154.119 155.657C158.26 146.454 164.307 138.235 171.86 131.542L179.085 125.14C182.774 121.87 185.728 117.855 187.751 113.36C189.774 108.864 190.82 103.99 190.82 99.0605V191.832Z" fill="white"/>
<path d="M147.836 202.191C146.852 202.191 145.909 201.8 145.214 201.105C144.518 200.409 144.127 199.466 144.127 198.482V184.928C144.13 174.312 146.384 163.818 150.74 154.137C155.097 144.456 161.457 135.809 169.4 128.766L176.624 122.364C179.92 119.442 182.559 115.854 184.367 111.837C186.175 107.82 187.11 103.466 187.111 99.0606V95.6886C187.108 95.1995 187.202 94.7146 187.386 94.2618C187.571 93.809 187.844 93.3972 188.189 93.0502C188.533 92.7032 188.943 92.4278 189.395 92.2399C189.847 92.0519 190.331 91.9552 190.82 91.9552C191.309 91.9552 191.793 92.0519 192.245 92.2399C192.697 92.4278 193.106 92.7032 193.451 93.0502C193.796 93.3972 194.069 93.809 194.253 94.2618C194.438 94.7146 194.532 95.1995 194.529 95.6886V99.0606C194.527 104.515 193.369 109.907 191.131 114.88C188.892 119.854 185.625 124.297 181.544 127.915L174.32 134.317C167.161 140.664 161.43 148.456 157.504 157.18C153.579 165.904 151.547 175.362 151.545 184.928V194.155L190.254 188.166C190.736 188.089 191.229 188.108 191.704 188.222C192.18 188.336 192.628 188.543 193.023 188.83C193.418 189.118 193.752 189.481 194.006 189.898C194.261 190.315 194.43 190.779 194.505 191.262C194.579 191.745 194.558 192.238 194.442 192.712C194.325 193.187 194.116 193.634 193.826 194.027C193.537 194.421 193.172 194.753 192.753 195.005C192.335 195.258 191.871 195.425 191.387 195.497L148.403 202.148C148.215 202.176 148.026 202.191 147.836 202.191Z" fill="#341472"/>
<path d="M249.071 191.832L292.055 198.483V184.928C292.055 174.837 289.914 164.86 285.773 155.657C281.631 146.454 275.584 138.235 268.031 131.542L260.807 125.14C257.117 121.87 254.163 117.855 252.14 113.36C250.117 108.864 249.071 103.99 249.071 99.0605V191.832Z" fill="white"/>
<path d="M292.056 202.191C291.866 202.191 291.676 202.177 291.488 202.148L248.505 195.497C247.532 195.346 246.66 194.816 246.079 194.022C245.498 193.228 245.256 192.236 245.407 191.264C245.557 190.292 246.088 189.42 246.881 188.839C247.675 188.258 248.667 188.016 249.639 188.166L288.347 194.156V184.929C288.344 175.362 286.313 165.905 282.387 157.181C278.462 148.457 272.731 140.665 265.573 134.318L258.347 127.916C254.266 124.297 250.999 119.854 248.761 114.881C246.523 109.907 245.365 104.515 245.363 99.0607V95.6888C245.363 94.7051 245.754 93.7618 246.45 93.0663C247.145 92.3708 248.088 91.98 249.072 91.98C250.056 91.98 250.999 92.3708 251.695 93.0663C252.39 93.7618 252.781 94.7051 252.781 95.6888V99.0607C252.782 103.465 253.717 107.82 255.524 111.837C257.332 115.854 259.97 119.442 263.266 122.364L270.491 128.767C278.435 135.809 284.794 144.456 289.151 154.137C293.507 163.818 295.761 174.313 295.764 184.929V198.482C295.764 199.466 295.373 200.409 294.678 201.104C293.982 201.8 293.039 202.191 292.056 202.191Z" fill="#341472"/>
<path d="M292.056 198.483L249.072 191.832V171.324L291.801 178.926L292.056 198.483Z" fill="#819CB0"/>
<path d="M292.056 202.191C291.866 202.191 291.676 202.176 291.488 202.147L248.505 195.497C247.63 195.361 246.833 194.917 246.257 194.245C245.681 193.573 245.364 192.717 245.364 191.831V171.323C245.364 170.781 245.483 170.246 245.712 169.755C245.941 169.263 246.275 168.828 246.691 168.48C247.106 168.132 247.593 167.879 248.117 167.74C248.64 167.6 249.188 167.577 249.722 167.672L292.452 175.274C293.301 175.425 294.071 175.868 294.63 176.525C295.188 177.183 295.5 178.015 295.511 178.877L295.765 198.434C295.771 198.925 295.679 199.412 295.496 199.868C295.312 200.323 295.04 200.737 294.695 201.087C294.35 201.436 293.939 201.714 293.486 201.903C293.033 202.093 292.547 202.191 292.056 202.191ZM252.781 188.652L288.291 194.147L288.133 182.04L252.781 175.75V188.652Z" fill="#341472"/>
<path d="M147.837 198.483L190.821 191.832V171.324L148.093 178.89L147.837 198.483Z" fill="#819CB0"/>
<path d="M147.836 202.191C147.345 202.191 146.859 202.093 146.405 201.904C145.952 201.714 145.541 201.437 145.196 201.087C144.852 200.738 144.579 200.323 144.396 199.868C144.212 199.412 144.121 198.925 144.128 198.434L144.383 178.841C144.395 177.978 144.706 177.146 145.265 176.488C145.824 175.83 146.595 175.388 147.445 175.238L190.173 167.672C190.707 167.577 191.254 167.601 191.778 167.741C192.301 167.881 192.787 168.134 193.202 168.482C193.618 168.83 193.951 169.265 194.18 169.756C194.41 170.247 194.528 170.782 194.528 171.324V191.831C194.528 192.717 194.211 193.573 193.635 194.245C193.059 194.917 192.261 195.361 191.386 195.497L148.402 202.148C148.215 202.176 148.025 202.191 147.836 202.191ZM151.76 182.007L151.601 194.147L187.111 188.653V175.747L151.76 182.007Z" fill="#341472"/>
<path d="M199.704 201.599C188.419 211.041 192.247 226.971 204.173 232.775C204.752 230.285 205.864 227.95 207.433 225.932C209.002 223.914 210.991 222.261 213.261 221.087C213.261 221.087 222.275 240.493 208.736 256.854C239.616 258.934 257.685 223.446 239.065 201.599H199.704Z" fill="#FC6D26"/>
<path d="M211.293 260.651C210.363 260.651 209.429 260.62 208.487 260.555C207.806 260.51 207.15 260.277 206.593 259.882C206.036 259.488 205.599 258.948 205.329 258.321C205.059 257.694 204.968 257.004 205.065 256.329C205.162 255.653 205.443 255.017 205.878 254.491C214.126 244.523 212.916 233.172 211.366 227.078C209.591 228.801 208.36 231.007 207.826 233.422C207.725 233.987 207.496 234.521 207.154 234.982C206.812 235.443 206.369 235.819 205.857 236.079C205.346 236.34 204.781 236.478 204.207 236.483C203.634 236.489 203.067 236.361 202.551 236.11C199.041 234.419 196.005 231.886 193.713 228.737C191.421 225.588 189.944 221.92 189.414 218.061C188.984 214.436 189.485 210.761 190.869 207.383C192.253 204.005 194.475 201.036 197.325 198.754C197.698 198.442 198.13 198.206 198.594 198.06C199.059 197.914 199.548 197.861 200.033 197.905C200.518 197.948 200.99 198.086 201.422 198.311C201.854 198.537 202.237 198.845 202.549 199.219C202.862 199.592 203.098 200.024 203.244 200.488C203.389 200.953 203.442 201.442 203.399 201.927C203.356 202.412 203.218 202.884 202.992 203.316C202.767 203.747 202.459 204.13 202.085 204.443C200.18 205.926 198.691 207.876 197.761 210.104C196.83 212.332 196.491 214.762 196.776 217.16C197.301 221.043 199.253 224.591 202.251 227.114C204.334 223.139 207.576 219.891 211.548 217.8C211.992 217.568 212.479 217.429 212.979 217.391C213.478 217.353 213.981 217.416 214.455 217.578C214.93 217.739 215.366 217.995 215.739 218.33C216.112 218.665 216.413 219.072 216.624 219.526C216.986 220.304 224.405 236.725 215.81 252.938C220.861 252.212 225.66 250.27 229.794 247.28C233.929 244.289 237.275 240.339 239.545 235.769C242.234 230.751 243.357 225.043 242.768 219.38C242.179 213.718 239.906 208.362 236.243 204.005C235.605 203.256 235.29 202.285 235.368 201.304C235.446 200.324 235.911 199.414 236.66 198.776C237.408 198.138 238.38 197.823 239.36 197.901C240.341 197.98 241.25 198.444 241.888 199.193C246.512 204.654 249.391 211.376 250.155 218.49C250.919 225.604 249.532 232.784 246.173 239.102C242.973 245.61 238.003 251.084 231.834 254.896C225.664 258.708 218.545 260.702 211.293 260.651Z" fill="#341472"/>
<path d="M249.072 205.307H190.82C190.333 205.307 189.851 205.211 189.401 205.025C188.951 204.839 188.542 204.565 188.198 204.221C187.853 203.877 187.58 203.468 187.394 203.018C187.207 202.568 187.112 202.086 187.112 201.598V98.9956C187.111 88.7345 189.307 78.5921 193.552 69.2504C197.797 59.9087 203.993 51.5841 211.724 44.8364C214.005 42.8563 216.925 41.7661 219.946 41.7661C222.967 41.7661 225.887 42.8563 228.168 44.8364C235.899 51.5844 242.094 59.909 246.34 69.2506C250.585 78.5923 252.781 88.7345 252.781 98.9956V201.598C252.781 202.086 252.685 202.568 252.498 203.018C252.312 203.468 252.039 203.877 251.695 204.221C251.35 204.565 250.941 204.839 250.491 205.025C250.041 205.211 249.559 205.307 249.072 205.307ZM194.529 197.89H245.363V98.9956C245.364 89.7932 243.394 80.6973 239.587 72.3193C235.78 63.9414 230.223 56.4755 223.291 50.4236C222.363 49.6184 221.175 49.175 219.946 49.175C218.718 49.175 217.53 49.6184 216.602 50.4236C209.669 56.4754 204.112 63.9412 200.305 72.3192C196.498 80.6971 194.528 89.7931 194.529 98.9956V197.89Z" fill="#341472"/>
<path d="M147.836 202.191C146.852 202.191 145.909 201.8 145.214 201.105C144.518 200.409 144.127 199.466 144.127 198.482V184.928C144.13 174.312 146.384 163.818 150.74 154.137C155.097 144.456 161.457 135.809 169.4 128.766L176.624 122.364C179.92 119.442 182.559 115.854 184.367 111.837C186.175 107.82 187.11 103.466 187.111 99.0606V95.6886C187.108 95.1995 187.202 94.7146 187.386 94.2618C187.571 93.809 187.844 93.3972 188.189 93.0502C188.533 92.7032 188.943 92.4278 189.395 92.2399C189.847 92.0519 190.331 91.9552 190.82 91.9552C191.309 91.9552 191.793 92.0519 192.245 92.2399C192.697 92.4278 193.106 92.7032 193.451 93.0502C193.796 93.3972 194.069 93.809 194.253 94.2618C194.438 94.7146 194.532 95.1995 194.529 95.6886V99.0606C194.527 104.515 193.369 109.907 191.131 114.88C188.892 119.854 185.625 124.297 181.544 127.915L174.32 134.317C167.161 140.664 161.43 148.456 157.504 157.18C153.579 165.904 151.547 175.362 151.545 184.928V194.155L190.254 188.166C190.736 188.089 191.229 188.108 191.704 188.222C192.18 188.336 192.628 188.543 193.023 188.83C193.418 189.118 193.752 189.481 194.006 189.898C194.261 190.315 194.43 190.779 194.505 191.262C194.579 191.745 194.558 192.238 194.442 192.712C194.325 193.187 194.116 193.634 193.826 194.027C193.537 194.421 193.172 194.753 192.753 195.005C192.335 195.258 191.871 195.425 191.387 195.497L148.403 202.148C148.215 202.176 148.026 202.191 147.836 202.191Z" fill="#341472"/>
<path d="M292.056 202.191C291.866 202.191 291.676 202.177 291.488 202.148L248.505 195.497C247.532 195.346 246.66 194.816 246.079 194.022C245.498 193.228 245.256 192.236 245.407 191.264C245.557 190.292 246.088 189.42 246.881 188.839C247.675 188.258 248.667 188.016 249.639 188.166L288.347 194.156V184.929C288.344 175.362 286.313 165.905 282.387 157.181C278.462 148.457 272.731 140.665 265.573 134.318L258.347 127.916C254.266 124.297 250.999 119.854 248.761 114.881C246.523 109.907 245.365 104.515 245.363 99.0607V95.6888C245.363 94.7051 245.754 93.7618 246.45 93.0663C247.145 92.3708 248.088 91.98 249.072 91.98C250.056 91.98 250.999 92.3708 251.695 93.0663C252.39 93.7618 252.781 94.7051 252.781 95.6888V99.0607C252.782 103.465 253.717 107.82 255.524 111.837C257.332 115.854 259.97 119.442 263.266 122.364L270.491 128.767C278.435 135.809 284.794 144.456 289.151 154.137C293.507 163.818 295.761 174.313 295.764 184.929V198.482C295.764 199.466 295.373 200.409 294.678 201.104C293.982 201.8 293.039 202.191 292.056 202.191Z" fill="#341472"/>
<path d="M211.29 260.031C210.375 260.031 209.454 260 208.528 259.938C207.961 259.9 207.415 259.706 206.951 259.377C206.486 259.048 206.122 258.598 205.897 258.076C205.672 257.553 205.596 256.979 205.677 256.416C205.758 255.853 205.992 255.323 206.355 254.885C215.323 244.046 213.423 231.797 211.71 225.902C209.452 227.823 207.875 230.424 207.217 233.315C207.133 233.785 206.941 234.23 206.657 234.615C206.372 234.999 206.002 235.312 205.576 235.529C205.15 235.746 204.68 235.861 204.202 235.866C203.724 235.87 203.251 235.763 202.821 235.554C199.404 233.909 196.448 231.444 194.215 228.379C191.983 225.313 190.544 221.743 190.027 217.986C189.611 214.463 190.099 210.893 191.445 207.611C192.791 204.329 194.951 201.444 197.722 199.229C198.35 198.703 199.162 198.448 199.978 198.52C200.382 198.556 200.776 198.671 201.135 198.859C201.495 199.047 201.814 199.304 202.075 199.615C202.335 199.926 202.532 200.286 202.654 200.673C202.775 201.06 202.819 201.468 202.783 201.872C202.747 202.276 202.632 202.669 202.444 203.029C202.257 203.389 202 203.708 201.689 203.968C199.703 205.517 198.152 207.552 197.183 209.876C196.215 212.2 195.864 214.734 196.162 217.234C196.749 221.54 199.013 225.44 202.461 228.084C204.453 223.912 207.741 220.497 211.833 218.347C212.204 218.154 212.609 218.038 213.026 218.006C213.442 217.974 213.861 218.027 214.257 218.161C214.652 218.296 215.016 218.509 215.327 218.788C215.638 219.068 215.888 219.407 216.064 219.786C216.428 220.567 224.039 237.415 214.688 253.692C220.068 253.133 225.218 251.221 229.661 248.136C234.104 245.051 237.694 240.892 240.097 236.046C242.841 230.92 243.986 225.089 243.383 219.306C242.779 213.522 240.456 208.053 236.712 203.603C236.187 202.979 235.929 202.172 235.996 201.358C236.064 200.544 236.45 199.79 237.071 199.261C237.693 198.731 238.498 198.469 239.312 198.531C240.126 198.593 240.883 198.975 241.416 199.593C245.959 204.962 248.789 211.57 249.538 218.564C250.287 225.557 248.922 232.615 245.618 238.824C242.47 245.229 237.578 250.617 231.506 254.368C225.434 258.119 218.427 260.082 211.29 260.031Z" fill="#341472"/>
<path d="M230.331 88.8772C229.584 88.8771 228.855 88.6516 228.238 88.23C227.621 87.8085 227.146 87.2106 226.875 86.5146C226.333 85.1167 225.382 83.9153 224.145 83.0682C222.908 82.221 221.444 81.7676 219.945 81.7676C218.446 81.7676 216.982 82.221 215.746 83.0682C214.509 83.9153 213.557 85.1167 213.016 86.5146C212.659 87.431 211.952 88.1679 211.051 88.5632C210.151 88.9585 209.13 88.9799 208.213 88.6226C207.297 88.2652 206.56 87.5585 206.165 86.6579C205.769 85.7572 205.748 84.7365 206.105 83.8201C207.189 81.0308 209.091 78.6342 211.56 76.9443C214.03 75.2545 216.953 74.3503 219.945 74.3503C222.938 74.3503 225.86 75.2545 228.33 76.9443C230.8 78.6342 232.701 81.0308 233.785 83.8201C234.004 84.3822 234.082 84.9891 234.013 85.5883C233.945 86.1875 233.731 86.7609 233.391 87.2589C233.051 87.757 232.594 88.1646 232.061 88.4466C231.528 88.7286 230.934 88.8763 230.331 88.8772Z" fill="#341472"/>
<path d="M219.781 188.059C219.294 188.059 218.812 187.963 218.362 187.777C217.912 187.59 217.503 187.317 217.158 186.973C216.814 186.628 216.541 186.219 216.355 185.769C216.168 185.32 216.072 184.837 216.072 184.35V144.134C216.072 143.15 216.463 142.207 217.159 141.511C217.854 140.816 218.797 140.425 219.781 140.425C220.765 140.425 221.708 140.816 222.403 141.511C223.099 142.207 223.49 143.15 223.49 144.134V184.35C223.49 184.837 223.394 185.32 223.208 185.77C223.021 186.22 222.748 186.628 222.404 186.973C222.059 187.317 221.65 187.59 221.2 187.777C220.75 187.963 220.268 188.059 219.781 188.059Z" fill="#341472"/>
<path d="M195.097 202.014L111.5 463.5" stroke="#341472" stroke-width="7.72281" stroke-linecap="round"/>
<path d="M328 459.5L245.617 202.014" stroke="#341472" stroke-width="7.72281" stroke-linecap="round"/>
</g>
<defs>
<clipPath id="clip0_160_2466">
<rect width="449.89" height="637" fill="white" transform="translate(0.0551758)"/>
</clipPath>
<clipPath id="clip1_160_2466">
<rect width="980.153" height="671.884" fill="white" transform="translate(-223.544 -9.71948)"/>
</clipPath>
</defs>
</svg>
